<svg width="49" height="47" viewBox="0 0 49 47" fill="none" xmlns="http://www.w3.org/2000/svg">
<g clip-path="url(#clip0_1_3)">
<path d="M42.7874 18.3541C42.616 18.443 42.4333 18.5076 42.2444 18.546C41.9828 18.6199 41.9108 18.7303 41.9535 18.9615C41.9601 18.9884 41.9667 19.0153 41.9734 19.046C42.0132 19.1928 41.9828 19.3607 41.9895 19.5258C41.9841 19.5806 41.9933 19.6359 42.016 19.686C42.0238 19.6965 42.0305 19.7077 42.0359 19.7196C42.2018 19.9681 42.1847 20.2061 41.98 20.4374C41.7753 20.6686 41.7345 20.8826 41.9042 21.1849C42.3108 21.9219 41.9468 22.6195 41.146 22.8009C41.032 22.8286 40.9154 22.8444 40.7982 22.8479C40.3376 22.8671 39.878 22.8738 39.4174 22.9112C39.2952 22.9184 39.1742 22.9386 39.0563 22.9717C38.7086 22.9606 38.3605 22.9695 38.0138 22.9985C37.339 23.0657 36.4387 23.0791 36.054 23.5042C35.0515 24.6202 34.1795 25.8496 33.4553 27.168C32.6545 28.6074 32.7919 30.1485 33.6543 31.5629C34.1045 32.3009 34.6438 32.9812 35.1404 33.6846C35.1404 33.6846 35.1337 33.6913 35.1337 33.6952C34.8826 33.6318 34.6371 33.5541 34.3926 33.4668C33.8192 33.0983 33.244 32.7327 32.737 32.2903C29.6247 29.5718 28.8997 24.7815 32.0451 21.6772C32.6081 21.1206 33.1113 20.5074 33.6344 19.9106C34.8324 18.5403 35.9516 17.122 36.5676 15.365C37.4149 12.9449 37.4973 10.5286 36.597 7.96359C36.918 8.0321 37.2345 8.12055 37.5447 8.22844C38.7954 8.66558 39.9171 9.41512 40.8058 10.4077C41.2559 10.9 41.6587 11.47 41.6928 12.1945C41.7165 12.6263 41.5611 12.7539 41.1308 12.6464C41.3261 13.0955 41.5099 13.5417 41.7061 13.9812C41.7728 14.1169 41.7994 14.2691 41.7829 14.4198C41.775 14.5252 41.749 14.6285 41.7061 14.7249C41.5374 15.1087 41.6502 15.4254 41.8956 15.7411C41.9686 15.8371 42.0416 15.9282 42.1108 16.029C42.4321 16.4512 42.7467 16.8802 43.0509 17.3129C43.357 17.7582 43.3873 17.9722 42.7874 18.3541Z" fill="url(#paint0_linear_1_3)"/>
<path d="M14.7333 34.2709C15.2318 33.5646 15.771 32.8853 16.2193 32.1483C17.0798 30.7329 17.2191 29.1918 16.4202 27.7524C15.694 26.4348 14.8219 25.2052 13.8206 24.0877C13.4358 23.6635 12.5374 23.6511 11.8598 23.5829C10.9851 23.4946 10.0809 23.6386 9.21758 23.5023C8.04431 23.3171 7.82634 22.7941 8.14477 21.6599C8.23954 21.3394 8.21016 20.8682 8.03294 20.6111C7.57804 19.9518 7.54582 19.8434 8.34379 19.1352C8.16373 19.0287 7.96471 18.9577 7.83297 18.8233C7.50127 18.498 7.38471 18.1986 7.84908 17.8196C8.49163 17.2937 8.45278 17.1114 7.77516 16.6182C7.04542 16.0856 7.03689 15.6154 7.80265 15.1788C9.18915 14.39 10.0838 13.3229 10.551 11.7003C10.8657 10.6025 11.7432 9.6592 12.4275 8.68808C12.6237 8.40884 13.0226 8.27546 13.5012 7.96167C12.3716 10.7445 12.3991 13.344 13.3117 15.9503C13.9258 17.7044 15.047 19.1256 16.2439 20.494C16.7661 21.0899 17.2703 21.706 17.8332 22.2606C20.9787 25.3659 20.2546 30.1552 17.1433 32.8757C16.4524 33.4792 15.6345 33.9312 14.8754 34.4571L14.7333 34.2709Z" fill="url(#paint1_linear_1_3)"/>
<path d="M12.4028 24.0848L10.0336 28.8713L7.1999 34.5243H1.03788L7.71735 20.994C7.76196 21.1715 7.76196 21.3576 7.71735 21.5352C7.57141 22.0514 7.4482 22.7088 7.77232 23.2221C8.09644 23.7355 8.7115 23.8775 9.14935 23.9457C9.48942 23.9964 9.83297 24.0192 10.1767 24.0138C10.3397 24.0138 10.5046 24.0138 10.6695 24.0071C10.8344 24.0004 10.9879 24.0013 11.1433 24.0013C11.367 23.9993 11.5907 24.0089 11.8134 24.0301L12.1147 24.057L12.4028 24.0848Z" fill="url(#paint2_linear_1_3)"/>
<path d="M28.8276 23.3018H22.5784L17.7034 13.3882L15.1806 18.474C14.5695 17.6582 14.0803 16.7558 13.7287 15.7958C12.9487 13.5648 12.8758 11.4085 13.523 9.23697L17.7034 0.769501L28.8276 23.3018Z" fill="url(#paint3_linear_1_3)"/>
<path d="M36.9713 23.5656C36.7117 23.6155 36.4871 23.6885 36.3781 23.8094C35.3984 24.8992 34.5468 26.1003 33.8401 27.3887C33.7203 27.6025 33.621 27.8274 33.5435 28.0604L39.9614 34.5252H47.7942L36.9713 23.5656Z" fill="url(#paint4_linear_1_3)"/>
<path d="M39.9614 0.773326L25.5457 15.3275L23.2106 17.691L25.5457 20.0151L29.8758 24.3765C30.2358 23.2297 30.8734 22.1922 31.7305 21.3586C32.1446 20.9479 32.5398 20.4901 32.9208 20.0497C33.0099 19.9451 33.099 19.8434 33.189 19.7407L31.1287 17.6536L36.7808 11.9286C36.8186 10.6313 36.6125 9.33844 36.1734 8.11903L35.9061 7.34848L36.687 7.51833C37.0251 7.59062 37.3584 7.6842 37.685 7.79853C38.4309 8.05723 39.1361 8.42374 39.7785 8.88671L47.7942 0.770447L39.9614 0.773326Z" fill="url(#paint5_linear_1_3)"/>
<path d="M37.2272 11.2531C37.2272 11.3251 37.2272 11.3961 37.2272 11.468C37.2329 11.3961 37.231 11.3241 37.2272 11.2531ZM36.6046 23.1905C36.4969 23.2217 36.393 23.2648 36.2947 23.319C36.3942 23.2659 36.499 23.2238 36.6074 23.1933L36.6046 23.1905ZM36.053 23.5033C36.0694 23.4847 36.0868 23.4671 36.1051 23.4505C36.0858 23.467 36.0675 23.4846 36.0502 23.5033H36.053Z" fill="white"/>
<path d="M4.85621 39.0948V40.2789L4.70458 40.3845C4.69889 40.3845 4.69889 40.3845 4.6932 40.3912C4.6866 40.3973 4.67836 40.4013 4.66951 40.4027C4.66382 40.4085 4.65814 40.4143 4.65245 40.4143C4.64961 40.4179 4.646 40.4207 4.6419 40.4227C4.6378 40.4247 4.63331 40.4258 4.62876 40.4258C4.62262 40.4335 4.61485 40.4397 4.60601 40.444C4.60033 40.4498 4.59464 40.4498 4.58801 40.4555C4.58137 40.4613 4.57664 40.4613 4.57095 40.467C4.5614 40.4718 4.55159 40.4759 4.54157 40.4795C4.53588 40.4853 4.5302 40.4853 4.52451 40.491C4.51634 40.4982 4.50595 40.5023 4.49513 40.5025L4.48376 40.5141H4.47713C4.4684 40.5217 4.45847 40.5279 4.44775 40.5323L4.407 40.5496L4.40131 40.5553C4.15576 40.6653 3.89235 40.7287 3.62418 40.7424H3.5152C3.28375 40.7441 3.05369 40.7062 2.83474 40.6302H2.82905C2.80536 40.6244 2.7883 40.6129 2.76461 40.6071L2.67742 40.5716C2.60434 40.5431 2.5342 40.5074 2.46798 40.4651C2.29216 40.3694 2.13227 40.2464 1.99412 40.1005C1.79588 39.9017 1.63782 39.6657 1.52879 39.4057C1.4448 39.205 1.39174 38.9923 1.37147 38.7753C1.36579 38.7043 1.3601 38.6284 1.3601 38.5574V38.4452C1.37572 38.1902 1.43272 37.9396 1.52879 37.7034C1.63899 37.444 1.7969 37.2083 1.99412 37.0086C2.18796 36.8086 2.42017 36.6509 2.67647 36.5452C2.94078 36.4293 3.22624 36.3711 3.51425 36.3744H3.62418C3.64175 36.3735 3.65935 36.3754 3.67631 36.3801C3.92738 36.3967 4.17352 36.4584 4.4032 36.5624C4.4032 36.564 4.4038 36.5654 4.40487 36.5665C4.40594 36.5676 4.40738 36.5682 4.40889 36.5682L4.44396 36.5864H4.44964V37.3934C4.36099 37.3174 4.26324 37.2529 4.15869 37.2015C4.07258 37.1616 3.98315 37.1295 3.89144 37.1056C3.88835 37.106 3.88522 37.1056 3.88227 37.1046C3.87931 37.1036 3.87662 37.102 3.87438 37.0998H3.85637C3.85069 37.0941 3.845 37.0941 3.83363 37.0941C3.82896 37.0937 3.82457 37.0917 3.82131 37.0883C3.79856 37.0816 3.76918 37.0816 3.74549 37.0758H3.73412C3.72843 37.0758 3.71706 37.0701 3.71137 37.0701H3.69905C3.69104 37.0709 3.68298 37.0689 3.67631 37.0643H3.62418C3.61755 37.0643 3.61186 37.0585 3.60618 37.0585H3.51141C3.24413 37.0566 2.9816 37.13 2.75324 37.2706C2.74434 37.2778 2.73444 37.2836 2.72386 37.2879C2.62992 37.3472 2.54392 37.4184 2.46798 37.5C2.44162 37.5241 2.41662 37.5497 2.39311 37.5767C2.39312 37.5776 2.39295 37.5784 2.3926 37.5792C2.39226 37.5799 2.39175 37.5806 2.39112 37.5812C2.39049 37.5817 2.38974 37.5821 2.38894 37.5824C2.38814 37.5826 2.38729 37.5826 2.38647 37.5825C2.35965 37.6166 2.33465 37.6522 2.3116 37.689L2.29928 37.7005C2.28791 37.7178 2.27654 37.736 2.26422 37.7533C2.25803 37.7599 2.25405 37.7683 2.25284 37.7773C2.16778 37.9147 2.10686 38.066 2.07278 38.2245C2.06709 38.2302 2.06709 38.2302 2.06709 38.236C2.05572 38.2955 2.0434 38.354 2.03771 38.4125V38.4778C2.03299 38.505 2.03109 38.5327 2.03203 38.5603C2.03133 38.586 2.03323 38.6118 2.03771 38.6371C2.04351 38.7484 2.06098 38.8587 2.08984 38.9662C2.15934 39.2134 2.28979 39.4386 2.46892 39.6207C2.74499 39.9018 3.1199 40.0605 3.51141 40.0621H3.55216C3.55525 40.0625 3.55838 40.0622 3.56133 40.0612C3.56428 40.0602 3.56698 40.0585 3.56922 40.0563H3.65641C3.65641 40.0506 3.66304 40.0506 3.66873 40.0506H3.70379C3.7436 40.0438 3.79098 40.0323 3.83173 40.0266C3.83742 40.0266 3.83742 40.0266 3.84311 40.0208C3.85112 40.0217 3.85918 40.0196 3.86585 40.0151H3.88386C3.8861 40.0129 3.88879 40.0112 3.89174 40.0102C3.89469 40.0092 3.89783 40.0089 3.90092 40.0093C3.90794 40.0047 3.9163 40.0027 3.92461 40.0035C3.92907 40.0028 3.93311 40.0004 3.93598 39.9968C4.01884 39.9739 4.09894 39.9417 4.17481 39.9009H4.18049V39.0939H3.3702V38.4759H4.85621V39.0948Z" fill="url(#paint6_linear_1_3)"/>
<path d="M11.4959 40.7424H10.7377L9.64974 39.2637H9.15503V40.7424H8.47647V36.3743H9.75683C10.3255 36.3743 10.6581 36.6094 10.8325 36.81C11.0583 37.097 11.1813 37.453 11.1813 37.82C11.1813 38.1869 11.0583 38.543 10.8325 38.8299C10.6965 38.983 10.5243 39.0985 10.3321 39.1658L11.4959 40.7424ZM9.75683 38.6515C10.0355 38.6515 10.2449 38.5689 10.3785 38.4163C10.5036 38.2428 10.571 38.0334 10.571 37.8185C10.571 37.6036 10.5036 37.3943 10.3785 37.2207C10.2449 37.0672 10.0355 36.9904 9.75683 36.9904H9.15124V38.6515H9.75683Z" fill="url(#paint7_linear_1_3)"/>
<path d="M17.366 39.8078H15.8307L15.4621 40.7424H14.7181L16.5965 36.1719L18.4691 40.7424H17.7309L17.366 39.8078ZM17.1224 39.1956L16.5965 37.8636L16.0733 39.1946L17.1224 39.1956Z" fill="url(#paint8_linear_1_3)"/>
<path d="M22.5472 36.3743H23.257C23.8256 36.3743 24.1583 36.6094 24.3326 36.8042C24.5581 37.0925 24.6808 37.4494 24.6808 37.8171C24.6808 38.1848 24.5581 38.5417 24.3326 38.8299C24.1583 39.0305 23.8266 39.2656 23.257 39.2656H22.6524V40.7424H21.9776V36.3743H22.5472ZM24.0768 37.8137C24.0856 37.5989 24.0184 37.3879 23.8872 37.2188C23.747 37.0652 23.5375 36.9827 23.2589 36.9827H22.6542V38.6438H23.2589C23.5375 38.6438 23.747 38.5673 23.8872 38.4144C24.0183 38.2445 24.0855 38.033 24.0768 37.8176V37.8137Z" fill="url(#paint9_linear_1_3)"/>
<path d="M31.2197 40.7424H30.5449V38.8597H28.8229V40.7424H28.1481V36.3743H28.8229V38.2407H30.5449V36.3743H31.2197V40.7424Z" fill="url(#paint10_linear_1_3)"/>
<path d="M35.0295 40.7424V36.3743H35.7043V40.7424H35.0295Z" fill="url(#paint11_linear_1_3)"/>
<path d="M42.6785 40.3845C42.5672 40.4579 42.4502 40.5221 42.3288 40.5764C42.0616 40.6885 41.7754 40.7466 41.4862 40.7472C41.2029 40.7481 40.9221 40.6917 40.6605 40.5815C40.3988 40.4713 40.1615 40.3094 39.9623 40.1052C39.7607 39.9036 39.6008 39.6633 39.492 39.3983C39.3831 39.1334 39.3275 38.8492 39.3283 38.5622C39.3267 38.2743 39.382 37.989 39.4909 37.723C39.5997 37.457 39.76 37.2158 39.9623 37.0134C40.1569 36.8121 40.3905 36.6536 40.6485 36.548C40.9128 36.4321 41.1982 36.3739 41.4862 36.3772C41.7757 36.3746 42.0626 36.4327 42.3288 36.548C42.3581 36.5595 42.3932 36.5778 42.4235 36.5893V37.3963C42.2011 37.2119 41.9306 37.0969 41.6448 37.0651C41.3591 37.0334 41.0704 37.0863 40.8137 37.2174C40.5571 37.3486 40.3436 37.5523 40.1991 37.8039C40.0545 38.0555 39.9853 38.3442 39.9996 38.6349C40.014 38.9256 40.1113 39.2059 40.2799 39.4416C40.4485 39.6774 40.681 39.8586 40.9493 39.9631C41.2176 40.0677 41.5101 40.0912 41.7913 40.0307C42.0725 39.9703 42.3303 39.8285 42.5335 39.6226C42.5851 39.5703 42.6338 39.5152 42.6794 39.4575L42.6785 40.3845Z" fill="url(#paint12_linear_1_3)"/>
<path d="M48.5941 39.8663C48.5238 40.0844 48.3963 40.2791 48.2252 40.4296C48.0541 40.58 47.8458 40.6805 47.6227 40.7203C47.5365 40.7374 47.4489 40.7454 47.3611 40.7443C47.1858 40.7449 47.0119 40.7123 46.8484 40.6484C46.5649 40.5303 46.318 40.337 46.1338 40.0889L46.6683 39.6648C46.7747 39.8174 46.922 39.936 47.0929 40.0064C47.2184 40.0587 47.3566 40.0707 47.489 40.041C47.5899 40.0268 47.6851 39.9855 47.7648 39.9213C47.8445 39.8572 47.9057 39.7726 47.9421 39.6763C48.0008 39.4757 47.8662 39.2992 47.7449 39.1812C47.5554 38.9988 47.2389 38.687 47.2152 38.663L46.6863 38.1573C46.5335 38.0137 46.4193 37.833 46.3546 37.6324C46.2951 37.4533 46.2911 37.2601 46.3433 37.0787C46.3987 36.887 46.51 36.7168 46.6626 36.5902C46.8113 36.4641 46.9895 36.3789 47.1801 36.3427C47.3934 36.2969 47.6152 36.3132 47.8198 36.3897C48.0498 36.4838 48.2521 36.6361 48.4074 36.8321L47.8824 37.2639C47.6615 36.9923 47.4341 36.9923 47.3137 37.0163C47.2439 37.0265 47.1781 37.0554 47.1229 37.0999C47.0678 37.1444 47.0254 37.203 47 37.2696C46.9763 37.3522 46.982 37.4875 47.163 37.664L47.8842 38.3645C47.9885 38.4711 48.1164 38.5948 48.2093 38.6831C48.3848 38.8367 48.5158 39.0357 48.5884 39.2589C48.6503 39.4562 48.6523 39.6678 48.5941 39.8663Z" fill="url(#paint13_linear_1_3)"/>
<path d="M3.05555 44.7468C3.05436 45.0234 2.95323 45.29 2.77124 45.4963C2.6693 45.6113 2.54429 45.703 2.40456 45.7652C2.26482 45.8275 2.11359 45.8588 1.96095 45.8571C1.74951 45.8642 1.54045 45.8102 1.3583 45.7012C1.17616 45.5923 1.02851 45.4329 0.932678 45.242C0.610455 44.6355 0.709965 43.7066 1.16013 43.081C1.31412 42.8624 1.51927 42.686 1.75719 42.5676C1.99593 42.4517 2.26123 42.4037 2.52483 42.4284V42.9697C2.3506 42.9422 2.17225 42.9686 2.01307 43.0455C1.85555 43.1243 1.72026 43.2421 1.61977 43.388C1.52504 43.5208 1.45149 43.6678 1.4018 43.8237C1.56986 43.7492 1.75196 43.7129 1.93536 43.7172C2.37604 43.7172 2.63667 43.888 2.77882 44.0367C2.96036 44.2269 3.0599 44.4823 3.05555 44.7468ZM2.50588 44.7468C2.50866 44.6839 2.49874 44.6211 2.47675 44.5622C2.45475 44.5033 2.42113 44.4495 2.37794 44.4042C2.3177 44.3497 2.24718 44.3081 2.17063 44.2818C2.09408 44.2556 2.01309 44.2454 1.93251 44.2517C1.83597 44.2452 1.73936 44.2631 1.65135 44.3038C1.56334 44.3445 1.48671 44.4067 1.42833 44.4849C1.38562 44.5485 1.35359 44.6189 1.33356 44.6931C1.34858 44.7978 1.3806 44.8993 1.42833 44.9934C1.47696 45.0952 1.55413 45.1803 1.6502 45.238C1.74626 45.2957 1.85698 45.3234 1.96853 45.3178C2.04236 45.3196 2.11571 45.3053 2.18358 45.2758C2.25146 45.2463 2.31225 45.2024 2.36183 45.147C2.45611 45.0354 2.50818 44.8936 2.50872 44.7468H2.50588Z" fill="url(#paint14_linear_1_3)"/>
<path d="M6.85967 45.8571C6.46019 45.82 6.07758 45.6763 5.75085 45.4406L6.0636 45.0011C6.58484 45.3581 7.07765 45.4176 7.40935 45.1777C7.64722 45.0011 7.76095 44.6979 7.67471 44.4464C7.63135 44.3279 7.54723 44.2291 7.43778 44.1682C7.25498 44.0731 7.0507 44.0285 6.84546 44.0386H6.37634L6.98288 42.9514H5.97356V42.4188H7.91258L7.28141 43.5387C7.43699 43.5725 7.58699 43.6287 7.72683 43.7056C7.9437 43.8312 8.10883 44.0314 8.19216 44.2699C8.27268 44.5052 8.27268 44.761 8.19216 44.9963C8.1058 45.2374 7.95038 45.4468 7.74579 45.598C7.51192 45.7694 7.22986 45.8602 6.94118 45.8571H6.85967Z" fill="url(#paint15_linear_1_3)"/>
<path d="M11.0362 45.8571L12.4009 42.961H11.0457V42.4236H13.2634L11.6428 45.8571H11.0362Z" fill="url(#paint16_linear_1_3)"/>
<path d="M16.4771 45.8571V45.2525H14.7191L17.0267 42.2394V44.7151H17.3584V45.2525H17.0267V45.8532L16.4771 45.8571ZM16.4771 44.719V43.863L15.8231 44.719H16.4771Z" fill="url(#paint17_linear_1_3)"/>
<path d="M21.3161 45.8571C20.9112 45.8274 20.5225 45.6846 20.193 45.4444L20.501 45.0001C20.7474 45.1807 21.037 45.291 21.3398 45.3197C21.5165 45.3348 21.6924 45.282 21.8326 45.1719C21.9312 45.093 22.0025 44.9845 22.0363 44.862C22.0669 44.7467 22.0585 44.6245 22.0126 44.5146C21.9398 44.3731 21.8159 44.2656 21.6667 44.2142C21.444 44.1183 21.1408 44.1029 20.7901 44.149L20.4347 44.1998L20.6622 42.4227H22.3396V42.9552H21.1455L21.0649 43.5895C21.3409 43.5761 21.6167 43.6202 21.8752 43.7191C22.1538 43.8184 22.3821 44.0254 22.5102 44.2948C22.6057 44.5155 22.6254 44.7621 22.5661 44.9954C22.5069 45.2287 22.372 45.4351 22.1832 45.5817C21.9538 45.7639 21.6692 45.8602 21.3777 45.8542L21.3161 45.8571Z" fill="url(#paint18_linear_1_3)"/>
<path d="M26.1125 45.6959C25.939 45.5924 25.7915 45.4499 25.6812 45.2794C25.4672 44.9381 25.3568 44.5407 25.3638 44.1365C25.3573 43.733 25.4659 43.3362 25.6765 42.9936C25.7873 42.8276 25.9329 42.6883 26.103 42.5858C26.2899 42.476 26.5029 42.4199 26.719 42.4236C26.9337 42.4193 27.1453 42.4754 27.3303 42.5858C27.5045 42.6864 27.6511 42.8296 27.7567 43.0023C27.9636 43.3456 28.0734 43.7399 28.0743 44.1421C28.0751 44.5443 27.9669 44.939 27.7615 45.2832C27.6549 45.4524 27.5104 45.5938 27.3397 45.6959C27.1536 45.8032 26.9427 45.8588 26.7285 45.8571C26.5127 45.8589 26.3003 45.8033 26.1125 45.6959ZM26.1409 43.2892C25.9863 43.5437 25.9073 43.8378 25.9134 44.1365C25.9081 44.4363 25.987 44.7315 26.1409 44.9877C26.2027 45.0893 26.2891 45.1732 26.392 45.2314C26.4948 45.2897 26.6106 45.3204 26.7285 45.3207C26.8433 45.3212 26.9563 45.2911 27.0561 45.2335C27.1559 45.1759 27.239 45.0928 27.2971 44.9925C27.4501 44.7375 27.5275 44.4434 27.5198 44.1452C27.5266 43.8458 27.4494 43.5506 27.2971 43.294C27.2375 43.1928 27.1531 43.1089 27.052 43.0505C26.9509 42.9921 26.8367 42.9612 26.7203 42.9607C26.604 42.9602 26.4895 42.9902 26.3879 43.0478C26.2864 43.1053 26.2013 43.1885 26.1409 43.2892Z" fill="url(#paint19_linear_1_3)"/>
<path d="M33.2127 44.7468C33.2128 45.0228 33.1134 45.2893 32.9331 45.4963C32.8312 45.6113 32.7062 45.703 32.5665 45.7652C32.4267 45.8275 32.2755 45.8588 32.1228 45.8571C31.9114 45.8642 31.7023 45.8102 31.5202 45.7012C31.3381 45.5923 31.1904 45.4329 31.0946 45.242C30.7724 44.6355 30.8719 43.7066 31.322 43.081C31.476 42.8624 31.6812 42.686 31.9191 42.5676C32.1578 42.4517 32.4231 42.4037 32.6867 42.4284V42.9697C32.5091 42.9411 32.3272 42.9686 32.1655 43.0483C32.0076 43.127 31.872 43.2449 31.7712 43.3909C31.6765 43.5237 31.603 43.6707 31.5533 43.8266C31.7215 43.7502 31.9043 43.7122 32.0887 43.7153C32.5294 43.7153 32.79 43.8861 32.9322 44.0348C33.023 44.1289 33.0945 44.2403 33.1427 44.3624C33.1908 44.4846 33.2146 44.6153 33.2127 44.7468ZM32.663 44.7468C32.6658 44.6839 32.6559 44.6211 32.6339 44.5622C32.6119 44.5033 32.5783 44.4495 32.5351 44.4042C32.4749 44.3497 32.4043 44.3081 32.3278 44.2818C32.2512 44.2556 32.1702 44.2454 32.0897 44.2517C31.9925 44.2445 31.8951 44.2621 31.8064 44.3029C31.7177 44.3436 31.6404 44.4062 31.5817 44.4849C31.5387 44.5494 31.5067 44.6207 31.4869 44.696C31.5034 44.801 31.5371 44.9025 31.5864 44.9963C31.6351 45.0981 31.7122 45.1832 31.8083 45.2408C31.9044 45.2985 32.0151 45.3263 32.1266 45.3207C32.2005 45.3225 32.2738 45.3082 32.3417 45.2787C32.4096 45.2492 32.4704 45.2053 32.5199 45.1498C32.6135 45.037 32.6642 44.8941 32.663 44.7468Z" fill="url(#paint20_linear_1_3)"/>
<path d="M37.014 45.8571C36.6145 45.82 36.2319 45.6763 35.9052 45.4406L36.2179 45.0011C36.7392 45.3581 37.232 45.4176 37.5637 45.1777C37.8006 45.0011 37.9143 44.6979 37.829 44.4464C37.7857 44.3279 37.7015 44.2291 37.5921 44.1682C37.4093 44.0731 37.205 44.0285 36.9998 44.0386H36.5307L37.1372 42.9514H36.1307V42.4188H38.0688L37.4386 43.5387C37.5941 43.5725 37.7441 43.6287 37.884 43.7056C38.1005 43.8314 38.2653 44.0316 38.3484 44.2699C38.4274 44.5057 38.4257 44.7616 38.3436 44.9963C38.2573 45.2371 38.1022 45.4465 37.8982 45.598C37.6648 45.7669 37.3843 45.856 37.0974 45.8523L37.014 45.8571Z" fill="url(#paint21_linear_1_3)"/>
<path d="M41.9118 45.6958C41.7383 45.5924 41.5908 45.4499 41.4806 45.2794C41.2665 44.9381 41.1561 44.5407 41.1631 44.1365C41.1566 43.733 41.2652 43.3362 41.4758 42.9936C41.5866 42.8276 41.7322 42.6883 41.9023 42.5858C42.0892 42.4759 42.3022 42.4199 42.5183 42.4236C42.7332 42.4194 42.9452 42.4755 43.1305 42.5858C43.3048 42.6864 43.4514 42.8296 43.557 43.0023C43.7631 43.346 43.8722 43.7405 43.8722 44.1427C43.8722 44.5449 43.7631 44.9394 43.557 45.2832C43.4501 45.4522 43.3057 45.5935 43.1353 45.6958C42.9469 45.8022 42.7349 45.8581 42.5192 45.8581C42.3036 45.8581 42.0915 45.8022 41.9032 45.6958H41.9118ZM41.9402 43.2892C41.7856 43.5436 41.7066 43.8378 41.7127 44.1365C41.7074 44.4363 41.7863 44.7315 41.9402 44.9877C42.002 45.0892 42.0884 45.1731 42.1913 45.2314C42.2941 45.2897 42.4099 45.3204 42.5278 45.3206C42.6425 45.3204 42.7552 45.29 42.8548 45.2325C42.9545 45.175 43.0377 45.0923 43.0964 44.9925C43.2491 44.7374 43.3261 44.4433 43.3182 44.1451C43.3253 43.8459 43.2484 43.5507 43.0964 43.294C43.0366 43.1924 42.9519 43.1084 42.8503 43.05C42.7488 42.9916 42.6341 42.961 42.5174 42.961C42.4009 42.9594 42.286 42.9889 42.1844 43.0465C42.0827 43.1041 41.9979 43.1878 41.9383 43.2892H41.9402Z" fill="url(#paint22_linear_1_3)"/>
<path d="M46.6115 43.5349C46.6144 43.2572 46.7153 42.9897 46.8958 42.7806C46.9986 42.6656 47.1245 42.5742 47.2651 42.5126C47.4057 42.4511 47.5577 42.4207 47.7108 42.4236C47.921 42.4174 48.1286 42.4715 48.3097 42.5796C48.4909 42.6878 48.6381 42.8456 48.7343 43.0349C49.0566 43.6414 48.9618 44.5703 48.5069 45.1959C48.3532 45.4159 48.1481 45.594 47.9098 45.7141C47.6511 45.8305 47.3674 45.8784 47.0853 45.8532V45.3111C47.2815 45.3362 47.4808 45.309 47.6634 45.2324C47.822 45.1534 47.9575 45.034 48.0567 44.886C48.1511 44.7523 48.2261 44.6056 48.2794 44.4503C48.1099 44.5283 47.9255 44.5679 47.7392 44.5664C47.5846 44.5738 47.4301 44.5492 47.2851 44.4943C47.1401 44.4394 47.0077 44.3552 46.8958 44.2469C46.8045 44.1529 46.7324 44.0417 46.6836 43.9195C46.6349 43.7973 46.6103 43.6666 46.6115 43.5349ZM47.1621 43.5349C47.1604 43.6613 47.2061 43.7837 47.29 43.8774C47.4129 43.9856 47.5729 44.0405 47.7355 44.03C47.8332 44.0368 47.9311 44.0183 48.0198 43.9761C48.1085 43.934 48.1852 43.8696 48.2425 43.7891C48.2896 43.7268 48.325 43.6562 48.3467 43.5809C48.3255 43.4777 48.2905 43.3779 48.2425 43.2844C48.1947 43.183 48.1184 43.0982 48.0231 43.0406C47.9278 42.9831 47.8178 42.9554 47.707 42.961C47.6324 42.9587 47.5582 42.9727 47.4895 43.0022C47.4208 43.0317 47.3592 43.0759 47.309 43.1318C47.2151 43.2447 47.1632 43.3873 47.1621 43.5349Z" fill="url(#paint23_linear_1_3)"/>
</g>
<defs>
<linearGradient id="paint0_linear_1_3" x1="30.0113" y1="20.8289" x2="43.2632" y2="20.8289" gradientUnits="userSpaceOnUse">
<stop stop-color="#00BCC5"/>
<stop offset="0.49" stop-color="#9ED8D5"/>
<stop offset="1" stop-color="#00617C"/>
</linearGradient>
<linearGradient id="paint1_linear_1_3" x1="7.22833" y1="21.2099" x2="19.8604" y2="21.2099" gradientUnits="userSpaceOnUse">
<stop stop-color="#F074AC"/>
<stop offset="0.5" stop-color="#EB008B"/>
<stop offset="1" stop-color="#CD118C"/>
</linearGradient>
<linearGradient id="paint2_linear_1_3" x1="1.03788" y1="27.7601" x2="12.4028" y2="27.7601" gradientUnits="userSpaceOnUse">
<stop stop-color="#00BCC5"/>
<stop offset="0.49" stop-color="#9ED8D5"/>
<stop offset="1" stop-color="#00617C"/>
</linearGradient>
<linearGradient id="paint3_linear_1_3" x1="13.0871" y1="12.038" x2="28.8276" y2="12.038" gradientUnits="userSpaceOnUse">
<stop stop-color="#00BCC5"/>
<stop offset="0.49" stop-color="#9ED8D5"/>
<stop offset="1" stop-color="#00617C"/>
</linearGradient>
<linearGradient id="paint4_linear_1_3" x1="33.5435" y1="29.0449" x2="47.7942" y2="29.0449" gradientUnits="userSpaceOnUse">
<stop stop-color="#F074AC"/>
<stop offset="0.5" stop-color="#EB008B"/>
<stop offset="1" stop-color="#CD118C"/>
</linearGradient>
<linearGradient id="paint5_linear_1_3" x1="23.2106" y1="12.5744" x2="47.7942" y2="12.5744" gradientUnits="userSpaceOnUse">
<stop stop-color="#F074AC"/>
<stop offset="0.5" stop-color="#EB008B"/>
<stop offset="1" stop-color="#CD118C"/>
</linearGradient>
<linearGradient id="paint6_linear_1_3" x1="1.35726" y1="38.5594" x2="4.85905" y2="38.5594" gradientUnits="userSpaceOnUse">
<stop stop-color="#CF7CB3"/>
<stop offset="0.5" stop-color="#C34B9B"/>
<stop offset="0.74" stop-color="#BF3294"/>
<stop offset="1" stop-color="#BB1B8D"/>
</linearGradient>
<linearGradient id="paint7_linear_1_3" x1="8.47647" y1="38.5593" x2="11.4959" y2="38.5593" gradientUnits="userSpaceOnUse">
<stop stop-color="#CF7CB3"/>
<stop offset="0.5" stop-color="#C34B9B"/>
<stop offset="0.74" stop-color="#BF3294"/>
<stop offset="1" stop-color="#BB1B8D"/>
</linearGradient>
<linearGradient id="paint8_linear_1_3" x1="14.7181" y1="38.4596" x2="18.4691" y2="38.4596" gradientUnits="userSpaceOnUse">
<stop stop-color="#CF7CB3"/>
<stop offset="0.5" stop-color="#C34B9B"/>
<stop offset="0.74" stop-color="#BF3294"/>
<stop offset="1" stop-color="#BB1B8D"/>
</linearGradient>
<linearGradient id="paint9_linear_1_3" x1="21.9776" y1="38.5593" x2="24.6814" y2="38.5593" gradientUnits="userSpaceOnUse">
<stop stop-color="#CF7CB3"/>
<stop offset="0.5" stop-color="#C34B9B"/>
<stop offset="0.74" stop-color="#BF3294"/>
<stop offset="1" stop-color="#BB1B8D"/>
</linearGradient>
<linearGradient id="paint10_linear_1_3" x1="28.1481" y1="38.5593" x2="31.2197" y2="38.5593" gradientUnits="userSpaceOnUse">
<stop stop-color="#CF7CB3"/>
<stop offset="0.5" stop-color="#C34B9B"/>
<stop offset="0.74" stop-color="#BF3294"/>
<stop offset="1" stop-color="#BB1B8D"/>
</linearGradient>
<linearGradient id="paint11_linear_1_3" x1="35.0295" y1="38.5593" x2="35.7043" y2="38.5593" gradientUnits="userSpaceOnUse">
<stop stop-color="#CF7CB3"/>
<stop offset="0.5" stop-color="#C34B9B"/>
<stop offset="0.74" stop-color="#BF3294"/>
<stop offset="1" stop-color="#BB1B8D"/>
</linearGradient>
<linearGradient id="paint12_linear_1_3" x1="39.3283" y1="38.5593" x2="42.6785" y2="38.5593" gradientUnits="userSpaceOnUse">
<stop stop-color="#CF7CB3"/>
<stop offset="0.5" stop-color="#C34B9B"/>
<stop offset="0.74" stop-color="#BF3294"/>
<stop offset="1" stop-color="#BB1B8D"/>
</linearGradient>
<linearGradient id="paint13_linear_1_3" x1="46.1338" y1="38.5315" x2="48.6339" y2="38.5315" gradientUnits="userSpaceOnUse">
<stop stop-color="#CF7CB3"/>
<stop offset="0.5" stop-color="#C34B9B"/>
<stop offset="0.74" stop-color="#BF3294"/>
<stop offset="1" stop-color="#BB1B8D"/>
</linearGradient>
<linearGradient id="paint14_linear_1_3" x1="0.751665" y1="44.1404" x2="3.0584" y2="44.1404" gradientUnits="userSpaceOnUse">
<stop stop-color="#00BCC5"/>
<stop offset="0.49" stop-color="#9ED8D5"/>
<stop offset="1" stop-color="#00617C"/>
</linearGradient>
<linearGradient id="paint15_linear_1_3" x1="5.75085" y1="44.1403" x2="8.24997" y2="44.1403" gradientUnits="userSpaceOnUse">
<stop stop-color="#00BCC5"/>
<stop offset="0.49" stop-color="#9ED8D5"/>
<stop offset="1" stop-color="#00617C"/>
</linearGradient>
<linearGradient id="paint16_linear_1_3" x1="11.0362" y1="44.1404" x2="13.2634" y2="44.1404" gradientUnits="userSpaceOnUse">
<stop stop-color="#00BCC5"/>
<stop offset="0.49" stop-color="#9ED8D5"/>
<stop offset="1" stop-color="#00617C"/>
</linearGradient>
<linearGradient id="paint17_linear_1_3" x1="14.7191" y1="44.0501" x2="17.3584" y2="44.0501" gradientUnits="userSpaceOnUse">
<stop stop-color="#00BCC5"/>
<stop offset="0.49" stop-color="#9ED8D5"/>
<stop offset="1" stop-color="#00617C"/>
</linearGradient>
<linearGradient id="paint18_linear_1_3" x1="20.193" y1="44.1403" x2="22.6021" y2="44.1403" gradientUnits="userSpaceOnUse">
<stop stop-color="#00BCC5"/>
<stop offset="0.49" stop-color="#9ED8D5"/>
<stop offset="1" stop-color="#00617C"/>
</linearGradient>
<linearGradient id="paint19_linear_1_3" x1="25.3638" y1="44.1404" x2="28.0742" y2="44.1404" gradientUnits="userSpaceOnUse">
<stop stop-color="#00BCC5"/>
<stop offset="0.49" stop-color="#9ED8D5"/>
<stop offset="1" stop-color="#00617C"/>
</linearGradient>
<linearGradient id="paint20_linear_1_3" x1="30.905" y1="44.1404" x2="33.2127" y2="44.1404" gradientUnits="userSpaceOnUse">
<stop stop-color="#00BCC5"/>
<stop offset="0.49" stop-color="#9ED8D5"/>
<stop offset="1" stop-color="#00617C"/>
</linearGradient>
<linearGradient id="paint21_linear_1_3" x1="35.9052" y1="44.1403" x2="38.4033" y2="44.1403" gradientUnits="userSpaceOnUse">
<stop stop-color="#00BCC5"/>
<stop offset="0.49" stop-color="#9ED8D5"/>
<stop offset="1" stop-color="#00617C"/>
</linearGradient>
<linearGradient id="paint22_linear_1_3" x1="41.1612" y1="44.1403" x2="43.8726" y2="44.1403" gradientUnits="userSpaceOnUse">
<stop stop-color="#00BCC5"/>
<stop offset="0.49" stop-color="#9ED8D5"/>
<stop offset="1" stop-color="#00617C"/>
</linearGradient>
<linearGradient id="paint23_linear_1_3" x1="46.6115" y1="44.1413" x2="48.921" y2="44.1413" gradientUnits="userSpaceOnUse">
<stop stop-color="#00BCC5"/>
<stop offset="0.49" stop-color="#9ED8D5"/>
<stop offset="1" stop-color="#00617C"/>
</linearGradient>
<clipPath id="clip0_1_3">
<rect width="49" height="46" fill="white" transform="translate(0 0.5)"/>
</clipPath>
</defs>
</svg>
