<svg width="95" height="95" viewBox="0 0 95 95" fill="none" xmlns="http://www.w3.org/2000/svg">
<path d="M93.4329 41.8902L83.6339 18.2352C82.2469 14.8872 79.5869 12.2272 76.2389 10.8402L52.5839 1.04123C49.2359 -0.345773 45.4739 -0.345773 42.1259 1.04123L18.4699 10.8402C15.1219 12.2272 12.4618 14.8872 11.0748 18.2352L1.27688 41.8902C-0.110124 45.2382 -0.110124 49.0002 1.27688 52.3482L11.0748 76.0042C12.4618 79.3522 15.1219 82.0132 18.4709 83.4002L42.1269 93.1982C45.4748 94.5852 49.2369 94.5852 52.5849 93.1982L76.2399 83.4002C79.5879 82.0132 82.2479 79.3532 83.6349 76.0052L93.4339 52.3492C94.8199 49.0002 94.8199 45.2382 93.4329 41.8902Z" fill="url(#paint0_radial_26_687)"/>
<path d="M46.2119 86.6192C44.9249 86.6192 43.6359 86.5262 42.3809 86.3422C39.3029 85.8912 36.4499 84.0572 34.1579 82.5842C29.9909 79.9042 26.1549 76.6962 22.7579 73.0492C19.8749 69.9532 17.3319 66.5622 15.1989 62.9712L14.8569 62.3972C12.7829 58.9112 10.6379 55.3062 9.43187 51.2042C7.25887 43.8132 6.89885 36.0712 8.46785 30.4932C10.3449 23.8272 15.3829 17.8232 23.8709 12.1362C30.8999 7.42725 39.1049 4.83325 46.9749 4.83325C49.3089 4.83325 51.6209 5.06124 53.8449 5.51024C61.8419 7.12524 69.6809 11.8142 75.9179 18.7122C78.1989 21.2353 80.3369 24.1162 82.2719 27.2752C82.8509 28.2212 83.4189 29.2032 83.9599 30.1932L84.4699 31.1202C86.3619 34.5542 88.5049 38.4453 88.9039 42.5573C90.3129 57.1022 75.2819 70.1522 68.0569 76.4242C62.6889 81.0852 57.6939 85.0393 50.9189 86.2122C49.3609 86.4822 47.7759 86.6192 46.2119 86.6192Z" fill="url(#paint1_linear_26_687)"/>
<path d="M81.4208 27.7972C79.5938 24.8142 77.5259 21.9792 75.1779 19.3832C69.4719 13.0722 61.9879 8.17526 53.6479 6.49026C43.6099 4.46226 32.9359 7.26625 24.4279 12.9663C18.0129 17.2643 11.6119 23.0153 9.43187 30.7633C7.70287 36.9072 8.61186 44.8673 10.3919 50.9213C11.6259 55.1193 13.8478 58.7383 16.0578 62.4603C18.1698 66.0163 20.6708 69.3403 23.4898 72.3673C26.8178 75.9413 30.5918 79.1012 34.6998 81.7432C37.0768 83.2712 39.7109 84.9412 42.5259 85.3532C45.2509 85.7523 48.0379 85.6973 50.7509 85.2273C57.4729 84.0623 62.3799 80.0303 67.4039 75.6683C76.4818 67.7873 89.1969 55.9292 87.9109 42.6532C87.4979 38.3912 85.1018 34.3602 83.0848 30.6722C82.5528 29.7012 81.9988 28.7422 81.4208 27.7972Z" fill="url(#paint2_radial_26_687)"/>
<path d="M49.7509 74.7913C46.3079 74.7913 42.8409 73.9073 39.7249 72.2333C37.3019 70.9323 35.4178 69.1073 33.5968 67.3433C32.9818 66.7463 32.3629 66.1463 31.7189 65.5623C28.8539 62.9623 25.8909 60.2743 23.4299 57.1433C20.5829 53.5203 17.0629 47.9603 19.3349 41.5313C20.3109 38.7673 21.9669 36.3893 23.5679 34.0893C24.7509 32.3913 25.9728 30.6363 26.8638 28.7853C27.4528 27.5633 27.9359 26.2233 28.4039 24.9283C29.3759 22.2353 30.3809 19.4503 32.4299 17.2783C34.7399 14.8323 37.8358 13.5393 41.3858 13.5393C45.6578 13.5393 50.3279 15.4963 53.5729 18.6443C55.6269 20.6383 57.2999 22.9493 58.9179 25.1833C60.1289 26.8573 61.3818 28.5873 62.7648 30.1343C64.6348 32.2243 66.3089 33.6393 67.8809 34.4573C68.4009 34.7293 68.9238 34.9713 69.4418 35.2033L70.1708 35.5253C71.9488 36.3063 73.7869 37.1133 75.4279 38.6313C80.4159 43.2443 80.3918 50.1613 75.3638 57.6113L75.2308 57.8083C73.0328 61.0663 70.9558 64.1443 67.8768 66.9333C62.4708 71.8303 56.2308 74.6193 50.3078 74.7843C50.1218 74.7883 49.9359 74.7913 49.7509 74.7913Z" fill="url(#paint3_linear_26_687)"/>
<path d="M69.0349 36.1163C68.4979 35.8763 67.9579 35.6253 67.4189 35.3443C65.3879 34.2863 63.5349 32.4933 62.0199 30.8003C58.7609 27.1563 56.3999 22.7813 52.8769 19.3613C47.7909 14.4243 38.5989 12.2003 33.1589 17.9633C30.2849 21.0083 29.5819 25.4463 27.7659 29.2183C25.6369 33.6383 21.9259 37.1973 20.2779 41.8633C18.3529 47.3123 20.8159 52.1963 24.2169 56.5243C26.6189 59.5803 29.5129 62.2083 32.3909 64.8213C34.9439 67.1373 37.1089 69.6933 40.1979 71.3523C43.2769 73.0053 46.7829 73.8813 50.2809 73.7843C56.5939 73.6073 62.5259 70.4313 67.2069 66.1923C70.2559 63.4303 72.2829 60.3893 74.5359 57.0523C78.2249 51.5873 80.3059 44.5043 74.7509 39.3663C73.0209 37.7663 71.0469 37.0163 69.0349 36.1163Z" fill="url(#paint4_radial_26_687)"/>
<path d="M47.3549 18.8723C31.9009 18.8723 19.3729 31.3983 19.3729 46.8543C19.3729 52.0753 20.8059 56.9593 23.2959 61.1403L19.7679 75.3653L33.7909 71.3273C37.8109 73.5573 42.4329 74.8353 47.3549 74.8353C62.8099 74.8353 75.3369 62.3063 75.3369 46.8533C75.3369 31.3983 62.8099 18.8723 47.3549 18.8723ZM47.6719 70.1903C42.7849 70.1903 38.2519 68.6743 34.5109 66.0963L26.5259 68.3973L28.5669 60.1703C25.9689 56.4173 24.4419 51.8653 24.4419 46.9583C24.4419 34.1273 34.8429 23.7273 47.6719 23.7273C60.5029 23.7273 70.9029 34.1273 70.9029 46.9583C70.9029 59.7893 60.5029 70.1903 47.6719 70.1903Z" fill="url(#paint5_radial_26_687)"/>
<path d="M40.2809 44.6384C40.6059 44.2654 40.9299 43.8924 41.2529 43.5194C41.7979 42.8864 42.6149 42.2764 42.6569 41.3664C42.6979 40.4924 42.3859 39.6214 42.0769 38.8284C41.8779 38.3184 41.6739 37.8094 41.4779 37.2964C41.1249 36.3654 40.6679 35.0624 40.1539 34.5174C39.4579 33.7804 38.2659 33.6234 37.3229 34.0764C37.3229 34.0764 31.8319 36.7154 33.5229 41.9954C33.5229 41.9954 36.7959 56.8834 53.2699 59.9454C53.2699 59.9454 59.1819 60.7914 60.7649 57.1994C61.1069 56.4244 61.3389 55.3354 61.2819 54.4934C61.2249 53.6754 60.6489 53.1334 59.9749 52.7444C59.1069 52.2484 58.3349 51.7824 57.3459 51.2934C56.4879 50.8724 55.5009 50.2464 54.5139 50.5184C53.7899 50.7194 53.2699 51.3804 52.7799 51.9064C52.1399 52.5834 51.4859 53.2534 50.8389 53.9274C50.8389 53.9274 42.4979 50.8644 40.2809 44.6384Z" fill="url(#paint6_radial_26_687)"/>
<defs>
<radialGradient id="paint0_radial_26_687" cx="0" cy="0" r="1" gradientUnits="userSpaceOnUse" gradientTransform="translate(47.3551 47.1195) scale(47.1182 47.1182)">
<stop offset="0.7128" stop-color="#57C965"/>
<stop offset="0.8192" stop-color="#3FBF54"/>
<stop offset="1" stop-color="#0FAB31"/>
</radialGradient>
<linearGradient id="paint1_linear_26_687" x1="87.3793" y1="2.39915" x2="44.7327" y2="45.0458" gradientUnits="userSpaceOnUse">
<stop offset="0.3271" stop-color="#95DD9E"/>
<stop offset="0.5841" stop-color="#8FDAA8" stop-opacity="0"/>
</linearGradient>
<radialGradient id="paint2_radial_26_687" cx="0" cy="0" r="1" gradientUnits="userSpaceOnUse" gradientTransform="translate(48.2532 45.7266) scale(39.8202 39.8202)">
<stop offset="0.7128" stop-color="#3BC04B"/>
<stop offset="0.9377" stop-color="#27A843"/>
<stop offset="1" stop-color="#21A140"/>
</radialGradient>
<linearGradient id="paint3_linear_26_687" x1="71.3264" y1="20.9542" x2="49.3153" y2="42.9653" gradientUnits="userSpaceOnUse">
<stop offset="0.3225" stop-color="#61CC6F"/>
<stop offset="0.5841" stop-color="#8FDAA8" stop-opacity="0"/>
</linearGradient>
<radialGradient id="paint4_radial_26_687" cx="0" cy="0" r="1" gradientUnits="userSpaceOnUse" gradientTransform="translate(48.8815 44.1646) scale(29.4536 29.4536)">
<stop offset="0.3248" stop-color="#39AF49"/>
<stop offset="0.4952" stop-color="#33A945"/>
<stop offset="0.7332" stop-color="#22963B"/>
<stop offset="1" stop-color="#077A2A"/>
</radialGradient>
<radialGradient id="paint5_radial_26_687" cx="0" cy="0" r="1" gradientUnits="userSpaceOnUse" gradientTransform="translate(36.268 76.946) scale(60.4669 60.4669)">
<stop offset="0.2194" stop-color="#E7E7E7"/>
<stop offset="0.8827" stop-color="#FCFCFC"/>
</radialGradient>
<radialGradient id="paint6_radial_26_687" cx="0" cy="0" r="1" gradientUnits="userSpaceOnUse" gradientTransform="translate(36.9069 64.2795) scale(27.0505 27.0505)">
<stop offset="0.2194" stop-color="#E7E7E7"/>
<stop offset="0.8827" stop-color="white"/>
</radialGradient>
</defs>
</svg>
