<svg width="96" height="95" viewBox="0 0 96 95" fill="none" xmlns="http://www.w3.org/2000/svg">
<path d="M94.1436 41.8902L84.3446 18.2352C82.9576 14.8872 80.2976 12.2272 76.9496 10.8402L53.2946 1.04123C49.9466 -0.345773 46.1846 -0.345773 42.8366 1.04123L19.1806 10.8402C15.8326 12.2272 13.1726 14.8872 11.7856 18.2352L1.98758 41.8902C0.600577 45.2382 0.600577 49.0002 1.98758 52.3482L11.7856 76.0042C13.1726 79.3522 15.8326 82.0132 19.1806 83.4002L42.8366 93.1982C46.1846 94.5852 49.9466 94.5852 53.2946 93.1982L76.9496 83.4002C80.2976 82.0132 82.9576 79.3532 84.3446 76.0052L94.1436 52.3492C95.5306 49.0012 95.5306 45.2392 94.1436 41.8902Z" fill="url(#paint0_radial_26_716)"/>
<path d="M46.9216 86.6202C45.6346 86.6202 44.3456 86.5272 43.0906 86.3432C40.0126 85.8923 37.1596 84.0582 34.8676 82.5852C30.7006 79.9052 26.8646 76.6972 23.4676 73.0502C20.5846 69.9542 18.0416 66.5632 15.9086 62.9722L15.5666 62.3982C13.4926 58.9122 11.3476 55.3072 10.1416 51.2052C7.96858 43.8142 7.60858 36.0722 9.17758 30.4942C11.0546 23.8282 16.0926 17.8232 24.5806 12.1372C31.6096 7.42824 39.8146 4.83423 47.6856 4.83423C50.0196 4.83423 52.3306 5.06123 54.5556 5.51123C62.5526 7.12623 70.3916 11.8152 76.6286 18.7132C78.9096 21.2362 81.0476 24.1172 82.9826 27.2762C83.5616 28.2222 84.1296 29.2042 84.6706 30.1942L85.1806 31.1212C87.0726 34.5552 89.2156 38.4462 89.6146 42.5582C91.0236 57.1032 75.9926 70.1532 68.7676 76.4252C63.3996 81.0862 58.4046 85.0402 51.6296 86.2142C50.0716 86.4832 48.4866 86.6202 46.9216 86.6202Z" fill="url(#paint1_linear_26_716)"/>
<path d="M82.1306 27.7984C80.3036 24.8154 78.2356 21.9804 75.8876 19.3844C70.1816 13.0734 62.6976 8.17635 54.3576 6.49135C44.3196 4.46335 33.6456 7.26836 25.1376 12.9684C18.7226 17.2664 12.3216 23.0174 10.1416 30.7654C8.41259 36.9094 9.32158 44.8694 11.1016 50.9234C12.3356 55.1214 14.5576 58.7404 16.7676 62.4624C18.8796 66.0184 21.3806 69.3423 24.1996 72.3693C27.5276 75.9433 31.3016 79.1033 35.4096 81.7453C37.7866 83.2733 40.4206 84.9434 43.2356 85.3554C45.9606 85.7544 48.7476 85.6994 51.4606 85.2294C58.1826 84.0644 63.0896 80.0323 68.1136 75.6713C77.1916 67.7903 89.9066 55.9324 88.6206 42.6564C88.2076 38.3944 85.8116 34.3633 83.7956 30.6753C83.2636 29.7023 82.7096 28.7424 82.1306 27.7984Z" fill="url(#paint2_radial_26_716)"/>
<path d="M50.4606 74.7913C47.0176 74.7913 43.5506 73.9073 40.4346 72.2333C38.0116 70.9323 36.1276 69.1083 34.3066 67.3433C33.6916 66.7463 33.0726 66.1463 32.4286 65.5623C29.5636 62.9623 26.6006 60.2733 24.1396 57.1433C21.2926 53.5203 17.7726 47.9603 20.0446 41.5313C21.0206 38.7673 22.6766 36.3893 24.2776 34.0893C25.4606 32.3913 26.6826 30.6363 27.5736 28.7853C28.1626 27.5633 28.6456 26.2233 29.1136 24.9283C30.0856 22.2353 31.0906 19.4503 33.1396 17.2783C35.4496 14.8323 38.5456 13.5393 42.0956 13.5393C46.3676 13.5393 51.0376 15.4953 54.2826 18.6443C56.3366 20.6383 58.0096 22.9493 59.6276 25.1833C60.8386 26.8573 62.0916 28.5873 63.4746 30.1343C65.3446 32.2243 67.0186 33.6393 68.5906 34.4573C69.1106 34.7293 69.6336 34.9713 70.1516 35.2033L70.8816 35.5253C72.6596 36.3063 74.4976 37.1133 76.1386 38.6313C81.1266 43.2443 81.1026 50.1613 76.0746 57.6103L75.9416 57.8073C73.7436 61.0653 71.6676 64.1433 68.5876 66.9313C63.1816 71.8283 56.9416 74.6173 51.0186 74.7823C50.8316 74.7893 50.6466 74.7913 50.4606 74.7913Z" fill="url(#paint3_linear_26_716)"/>
<path d="M69.7446 36.1173C69.2076 35.8773 68.6676 35.6263 68.1286 35.3453C66.0976 34.2873 64.2446 32.4943 62.7296 30.8013C59.4706 27.1573 57.1096 22.7823 53.5866 19.3623C48.5006 14.4253 39.3086 12.2012 33.8686 17.9642C30.9946 21.0082 30.2916 25.4473 28.4756 29.2193C26.3466 33.6393 22.6356 37.1983 20.9876 41.8643C19.0626 47.3133 21.5256 52.1973 24.9266 56.5252C27.3286 59.5812 30.2226 62.2093 33.1006 64.8213C35.6536 67.1373 37.8186 69.6932 40.9076 71.3522C43.9866 73.0052 47.4926 73.8812 50.9906 73.7832C57.3036 73.6062 63.2356 70.4303 67.9166 66.1913C70.9656 63.4293 72.9926 60.3893 75.2456 57.0513C78.9346 51.5863 81.0156 44.5032 75.4606 39.3652C73.7316 37.7662 71.7566 37.0163 69.7446 36.1173Z" fill="url(#paint4_radial_26_716)"/>
<path d="M40.9566 64.1153C42.5126 63.7933 43.8646 63.1933 45.0096 62.3153C46.0226 61.5533 46.8716 60.6133 47.5496 59.4943C48.6136 57.8043 49.1456 55.9003 49.1456 53.7733C49.1456 51.7143 48.6796 49.9623 47.7496 48.5193C46.8176 47.0753 45.4366 46.0203 43.6056 45.3543C44.8106 44.7393 45.7216 44.0583 46.3426 43.3113C47.4476 41.9833 48.0036 40.2203 48.0036 38.0303C48.0036 35.9053 47.4536 34.0803 46.3556 32.5553C44.5326 30.0753 41.4336 28.8013 37.0616 28.7363H19.7256V64.6023H35.8886C37.7096 64.6023 39.4006 64.4403 40.9566 64.1153ZM26.8796 34.9653H34.6826C36.4006 34.9653 37.8126 35.1513 38.9216 35.5263C40.2076 36.0603 40.8496 37.1634 40.8496 38.8344C40.8496 40.3434 40.3626 41.3944 39.3906 41.9854C38.4206 42.5774 37.1556 42.8734 35.5976 42.8734H26.8806V34.9653H26.8796ZM26.8796 58.3734V48.8123H35.7076C37.2506 48.8283 38.4426 49.0293 39.2936 49.4193C40.8156 50.1163 41.5776 51.3973 41.5776 53.2623C41.5776 55.4683 40.7916 56.9613 39.2206 57.7413C38.3556 58.1633 37.1436 58.3723 35.5896 58.3723H26.8796V58.3734Z" fill="white"/>
<path d="M55.2196 62.2393C57.9176 64.4163 61.0326 65.5032 64.5606 65.5032C68.8386 65.5032 72.1646 64.2142 74.5376 61.6342C76.0676 60.0102 76.9236 58.4122 77.1106 56.8412H70.0296C69.6176 57.6192 69.1416 58.2262 68.6016 58.6642C67.6136 59.4762 66.3306 59.8822 64.7506 59.8822C63.2606 59.8822 61.9866 59.5492 60.9286 58.8842C59.1866 57.8132 58.2616 55.9483 58.1546 53.2863H77.4706C77.5046 50.9973 77.4286 49.2423 77.2426 48.0233C76.9206 45.9433 76.2156 44.1153 75.1286 42.5403C73.9266 40.7543 72.3966 39.4442 70.5446 38.6162C68.6976 37.7882 66.6176 37.3752 64.3076 37.3752C60.4226 37.3752 57.2606 38.6012 54.8246 41.0522C52.3886 43.5012 51.1706 47.0252 51.1706 51.6192C51.1736 56.5242 52.5226 60.0633 55.2196 62.2393ZM60.1736 44.6082C61.1556 43.5992 62.5336 43.0942 64.3126 43.0942C65.9496 43.0942 67.3226 43.5712 68.4276 44.5222C69.5326 45.4752 70.1486 46.8743 70.2746 48.7133H58.3266C58.5786 46.9863 59.1946 45.6182 60.1736 44.6082Z" fill="white"/>
<path d="M71.6526 30.7983H56.0666V34.4183H71.6526V30.7983Z" fill="white"/>
<defs>
<radialGradient id="paint0_radial_26_716" cx="0" cy="0" r="1" gradientUnits="userSpaceOnUse" gradientTransform="translate(48.0653 47.12) scale(47.1182 47.1182)">
<stop offset="0.6333" stop-color="#0057FF"/>
<stop offset="0.9977" stop-color="#002FE0"/>
</radialGradient>
<linearGradient id="paint1_linear_26_716" x1="79.8261" y1="10.6629" x2="46.3794" y2="44.1097" gradientUnits="userSpaceOnUse">
<stop offset="0.2611" stop-color="#137AFF"/>
<stop offset="0.9974" stop-color="#0240EC" stop-opacity="0"/>
</linearGradient>
<radialGradient id="paint2_radial_26_716" cx="0" cy="0" r="1" gradientUnits="userSpaceOnUse" gradientTransform="translate(48.9634 45.7271) scale(56.1393 56.1393)">
<stop offset="0.5305" stop-color="#0033E9"/>
<stop offset="0.8749" stop-color="#0013BE"/>
</radialGradient>
<linearGradient id="paint3_linear_26_716" x1="72.0024" y1="20.9889" x2="41.9605" y2="51.0308" gradientUnits="userSpaceOnUse">
<stop offset="0.263" stop-color="#004AF4"/>
<stop offset="0.9974" stop-color="#0240EC" stop-opacity="0"/>
</linearGradient>
<radialGradient id="paint4_radial_26_716" cx="0" cy="0" r="1" gradientUnits="userSpaceOnUse" gradientTransform="translate(47.2203 44.8765) scale(51.1576 51.1576)">
<stop offset="0.3491" stop-color="#002AC8"/>
<stop offset="0.6333" stop-color="#00058B"/>
</radialGradient>
</defs>
</svg>
