<svg width="95" height="95" viewBox="0 0 95 95" fill="none" xmlns="http://www.w3.org/2000/svg">
<path d="M93.3801 41.8902L83.5811 18.2352C82.1941 14.8872 79.5341 12.2272 76.1861 10.8402L52.5311 1.04123C49.1831 -0.345773 45.4211 -0.345773 42.0731 1.04123L18.4171 10.8402C15.0691 12.2272 12.4091 14.8872 11.0221 18.2352L1.22409 41.8902C-0.162912 45.2382 -0.162912 49.0002 1.22409 52.3482L11.0221 76.0042C12.4091 79.3522 15.0691 82.0132 18.4171 83.4002L42.0731 93.1982C45.4211 94.5852 49.1831 94.5852 52.5311 93.1982L76.1861 83.4002C79.5341 82.0132 82.1941 79.3532 83.5811 76.0052L93.3801 52.3502C94.7671 49.0012 94.7671 45.2392 93.3801 41.8902Z" fill="url(#paint0_radial_26_659)"/>
<path d="M46.1581 86.6202C44.8711 86.6202 43.5821 86.5272 42.3271 86.3432C39.2491 85.8922 36.3961 84.0582 34.1041 82.5852C29.9371 79.9052 26.1011 76.6972 22.7041 73.0502C19.8211 69.9542 17.2781 66.5632 15.1451 62.9722L14.8031 62.3982C12.7291 58.9122 10.5841 55.3072 9.37808 51.2052C7.20508 43.8142 6.84506 36.0722 8.41406 30.4942C10.2911 23.8282 15.3291 17.8242 23.8171 12.1372C30.8461 7.42823 39.0511 4.83423 46.9211 4.83423C49.2551 4.83423 51.5671 5.06223 53.7911 5.51123C61.7881 7.12623 69.6271 11.8152 75.8641 18.7132C78.1451 21.2362 80.2831 24.1172 82.2171 27.2762C82.7961 28.2222 83.3651 29.2042 83.9061 30.1942L84.4161 31.1212C86.3081 34.5542 88.4511 38.4462 88.8501 42.5582C90.2591 57.1032 75.2281 70.1532 68.0031 76.4252C62.6351 81.0862 57.6401 85.0402 50.8651 86.2132C49.3081 86.4832 47.7231 86.6202 46.1581 86.6202Z" fill="url(#paint1_linear_26_659)"/>
<path d="M81.3671 27.7973C79.5401 24.8143 77.4711 21.9793 75.1241 19.3833C69.4181 13.0723 61.9341 8.17526 53.5941 6.49026C43.5561 4.46226 32.8821 7.26625 24.3741 12.9663C17.9591 17.2643 11.5581 23.0153 9.3781 30.7633C7.6491 36.9073 8.55809 44.8673 10.3381 50.9213C11.5721 55.1193 13.7941 58.7383 16.0041 62.4603C18.1161 66.0163 20.6171 69.3403 23.4351 72.3673C26.7631 75.9413 30.5371 79.1013 34.6451 81.7433C37.0221 83.2713 39.6561 84.9413 42.4711 85.3533C45.1971 85.7523 47.9831 85.6973 50.6961 85.2273C57.4181 84.0623 62.3261 80.0303 67.3491 75.6693C76.4271 67.7883 89.1421 55.9303 87.8561 42.6543C87.4431 38.3923 85.0471 34.3613 83.0301 30.6733C82.5001 29.7013 81.9461 28.7423 81.3671 27.7973Z" fill="url(#paint2_radial_26_659)"/>
<path d="M49.6971 74.7913C46.2541 74.7913 42.7871 73.9073 39.6711 72.2333C37.2481 70.9323 35.364 69.1083 33.543 67.3433C32.928 66.7463 32.3091 66.1463 31.6651 65.5623C28.8001 62.9623 25.8371 60.2743 23.3761 57.1433C20.5291 53.5203 17.0091 47.9603 19.2811 41.5313C20.2571 38.7673 21.9131 36.3893 23.5141 34.0893C24.6971 32.3913 25.9191 30.6363 26.8101 28.7853C27.3991 27.5633 27.8821 26.2233 28.3501 24.9283C29.3221 22.2353 30.3271 19.4503 32.3761 17.2783C34.6861 14.8323 37.7821 13.5393 41.3321 13.5393C45.604 13.5393 50.2741 15.4963 53.5181 18.6443C55.5721 20.6383 57.2451 22.9493 58.8631 25.1843C60.0741 26.8583 61.3271 28.5883 62.7101 30.1353C64.5801 32.2253 66.2541 33.6403 67.8261 34.4583C68.3471 34.7303 68.869 34.9723 69.3881 35.2043L70.1181 35.5263C71.8961 36.3073 73.7341 37.1143 75.375 38.6323C80.363 43.2453 80.3391 50.1623 75.3111 57.6113L75.1781 57.8083C72.9801 61.0663 70.9041 64.1443 67.8251 66.9333C62.4191 71.8303 56.1781 74.6193 50.2561 74.7843C50.0681 74.7893 49.8831 74.7913 49.6971 74.7913Z" fill="url(#paint3_linear_26_659)"/>
<path d="M68.9811 36.1163C68.4441 35.8763 67.9041 35.6253 67.3651 35.3443C65.3341 34.2863 63.4811 32.4933 61.9661 30.8003C58.7071 27.1563 56.3471 22.7813 52.8231 19.3613C47.7371 14.4243 38.5451 12.2003 33.1051 17.9633C30.2311 21.0073 29.5291 25.4463 27.7121 29.2183C25.5831 33.6383 21.8721 37.1973 20.2241 41.8633C18.2991 47.3123 20.7621 52.1963 24.1631 56.5243C26.5651 59.5803 29.4591 62.2083 32.3371 64.8213C34.8901 67.1373 37.0551 69.6933 40.1441 71.3523C43.2231 73.0053 46.7291 73.8823 50.2271 73.7843C56.5401 73.6073 62.4721 70.4313 67.1531 66.1913C70.2021 63.4293 72.2291 60.3893 74.4821 57.0513C78.1711 51.5863 80.2521 44.5033 74.6971 39.3653C72.9681 37.7663 70.9931 37.0163 68.9811 36.1163Z" fill="url(#paint4_radial_26_659)"/>
<path d="M24.2671 36.3523H34.8901V70.5263H24.2671V36.3523ZM29.5801 19.3643C33.5161 19.3643 36.5991 23.0783 35.5141 27.1973C34.9691 29.2673 33.2661 30.9533 31.1911 31.4773C27.0881 32.5133 23.4241 29.4493 23.4241 25.5273C23.4241 22.1263 26.1751 19.3643 29.5801 19.3643Z" fill="white"/>
<path d="M41.5511 36.3523H51.7411V41.0273H51.8871C53.3041 38.3383 56.7691 35.5083 61.9351 35.5083C72.6911 35.5083 74.6771 42.5833 74.6771 51.7833V70.5273H64.0601V53.9073C64.0601 49.9443 63.9921 44.8443 58.5391 44.8443C53.0131 44.8443 52.1691 49.1663 52.1691 53.6233V70.5263H41.5511V36.3523Z" fill="white"/>
<defs>
<radialGradient id="paint0_radial_26_659" cx="0" cy="0" r="1" gradientUnits="userSpaceOnUse" gradientTransform="translate(47.3018 47.1198) scale(47.1182)">
<stop offset="0.6459" stop-color="#007BB5"/>
<stop offset="0.7597" stop-color="#0776B7"/>
<stop offset="0.9213" stop-color="#1967BC"/>
<stop offset="1" stop-color="#255EBF"/>
</radialGradient>
<linearGradient id="paint1_linear_26_659" x1="79.0626" y1="10.6628" x2="45.6159" y2="44.1096" gradientUnits="userSpaceOnUse">
<stop offset="0.2601" stop-color="#2A91FF"/>
<stop offset="1" stop-color="#49A1CB" stop-opacity="0"/>
</linearGradient>
<radialGradient id="paint2_radial_26_659" cx="0" cy="0" r="1" gradientUnits="userSpaceOnUse" gradientTransform="translate(48.1999 45.7269) scale(56.1393 56.1393)">
<stop offset="0.4909" stop-color="#0059B5"/>
<stop offset="0.6187" stop-color="#0052B0"/>
<stop offset="0.8004" stop-color="#0040A2"/>
<stop offset="0.9305" stop-color="#002E95"/>
</radialGradient>
<linearGradient id="paint3_linear_26_659" x1="71.2388" y1="20.9888" x2="41.1969" y2="51.0307" gradientUnits="userSpaceOnUse">
<stop offset="0.2617" stop-color="#1159FF"/>
<stop offset="1" stop-color="#49A1CB" stop-opacity="0"/>
</linearGradient>
<radialGradient id="paint4_radial_26_659" cx="0" cy="0" r="1" gradientUnits="userSpaceOnUse" gradientTransform="translate(48.8281 44.1649) scale(34.315 34.315)">
<stop offset="0.4211" stop-color="#0047A5"/>
<stop offset="0.5412" stop-color="#00439E"/>
<stop offset="0.7122" stop-color="#00378C"/>
<stop offset="0.9128" stop-color="#00246D"/>
<stop offset="0.9305" stop-color="#00226A"/>
</radialGradient>
</defs>
</svg>
