<svg width="95" height="95" viewBox="0 0 95 95" fill="none" xmlns="http://www.w3.org/2000/svg">
<path d="M93.1963 41.8893L83.3973 18.2342C82.0103 14.8862 79.3503 12.2262 76.0023 10.8392L52.3472 1.04025C48.9992 -0.34675 45.2372 -0.34675 41.8882 1.04025L18.2322 10.8392C14.8842 12.2262 12.2243 14.8862 10.8373 18.2342L1.04025 41.8903C-0.34675 45.2383 -0.34675 49.0003 1.04025 52.3483L10.8383 76.0042C12.2253 79.3522 14.8853 82.0133 18.2343 83.4003L41.8902 93.1982C45.2382 94.5853 49.0002 94.5853 52.3482 93.1982L76.0033 83.4003C79.3512 82.0133 82.0113 79.3532 83.3983 76.0052L93.1973 52.3503C94.5833 49.0003 94.5833 45.2383 93.1963 41.8893Z" fill="url(#paint0_radial_26_781)"/>
<path d="M45.9752 86.6192C44.6882 86.6192 43.3992 86.5262 42.1442 86.3422C39.0662 85.8913 36.2132 84.0573 33.9212 82.5843C29.7542 79.9043 25.9182 76.6963 22.5212 73.0492C19.6382 69.9532 17.0952 66.5623 14.9622 62.9713L14.6202 62.3972C12.5462 58.9112 10.4012 55.3062 9.19525 51.2042C7.02225 43.8132 6.66225 36.0713 8.23125 30.4933C10.1082 23.8273 15.1462 17.8233 23.6342 12.1363C30.6632 7.42725 38.8682 4.83325 46.7382 4.83325C49.0722 4.83325 51.3843 5.06125 53.6082 5.51025C61.6053 7.12525 69.4443 11.8143 75.6813 18.7123C77.9622 21.2353 80.1003 24.1163 82.0353 27.2753C82.6143 28.2213 83.1823 29.2033 83.7233 30.1933L84.2333 31.1203C86.1253 34.5533 88.2682 38.4453 88.6673 42.5573C90.0762 57.1022 75.0452 70.1522 67.8202 76.4242C62.4522 81.0853 57.4572 85.0393 50.6822 86.2122C49.1242 86.4822 47.5392 86.6192 45.9752 86.6192Z" fill="url(#paint1_linear_26_781)"/>
<path d="M81.1842 27.7963C79.3572 24.8133 77.2882 21.9783 74.9412 19.3823C69.2352 13.0713 61.7513 8.17428 53.4113 6.48928C43.3732 4.46128 32.6993 7.26528 24.1913 12.9653C17.7763 17.2633 11.3752 23.0143 9.19525 30.7623C7.46625 36.9063 8.37525 44.8663 10.1552 50.9203C11.3892 55.1183 13.6102 58.7373 15.8212 62.4593C17.9332 66.0153 20.4342 69.3393 23.2532 72.3663C26.5812 75.9403 30.3552 79.1003 34.4632 81.7423C36.8402 83.2703 39.4742 84.9403 42.2892 85.3523C45.0142 85.7513 47.8012 85.6963 50.5142 85.2263C57.2362 84.0613 62.1442 80.0293 67.1672 75.6683C76.2453 67.7873 88.9603 55.9293 87.6743 42.6533C87.2612 38.3913 84.8652 34.3603 82.8492 30.6723C82.3172 29.7003 81.7622 28.7413 81.1842 27.7963Z" fill="url(#paint2_radial_26_781)"/>
<path d="M49.5142 74.7903C46.0712 74.7903 42.6042 73.9063 39.4882 72.2323C37.0652 70.9313 35.1812 69.1073 33.3602 67.3423C32.7452 66.7453 32.1263 66.1453 31.4823 65.5613C28.6173 62.9613 25.6542 60.2733 23.1932 57.1423C20.3462 53.5193 16.8262 47.9593 19.0982 41.5303C20.0742 38.7663 21.7302 36.3883 23.3312 34.0883C24.5142 32.3903 25.7362 30.6353 26.6272 28.7843C27.2162 27.5623 27.6992 26.2223 28.1672 24.9273C29.1392 22.2343 30.1442 19.4493 32.1932 17.2773C34.5032 14.8313 37.5993 13.5383 41.1493 13.5383C45.4212 13.5383 50.0912 15.4953 53.3362 18.6433C55.3902 20.6373 57.0632 22.9483 58.6812 25.1833C59.8922 26.8573 61.1452 28.5873 62.5282 30.1343C64.3982 32.2243 66.0722 33.6393 67.6442 34.4573C68.1652 34.7293 68.6872 34.9713 69.2062 35.2033L69.9352 35.5253C71.7132 36.3063 73.5513 37.1133 75.1922 38.6313C80.1802 43.2443 80.1562 50.1613 75.1282 57.6103L74.9953 57.8073C72.7972 61.0653 70.7212 64.1433 67.6412 66.9323C62.2352 71.8293 55.9952 74.6183 50.0722 74.7833C49.8852 74.7883 49.7002 74.7903 49.5142 74.7903Z" fill="url(#paint3_linear_26_781)"/>
<path d="M68.7982 36.1154C68.2612 35.8754 67.7212 35.6244 67.1822 35.3434C65.1512 34.2854 63.2982 32.4924 61.7832 30.7994C58.5242 27.1554 56.1642 22.7804 52.6402 19.3604C47.5542 14.4234 38.3622 12.2004 32.9222 17.9624C30.0482 21.0064 29.3462 25.4454 27.5292 29.2174C25.4002 33.6374 21.6892 37.1964 20.0412 41.8624C18.1162 47.3114 20.5792 52.1954 23.9802 56.5234C26.3822 59.5794 29.2762 62.2074 32.1542 64.8204C34.7072 67.1364 36.8722 69.6924 39.9612 71.3514C43.0402 73.0044 46.5462 73.8814 50.0442 73.7834C56.3572 73.6064 62.2892 70.4304 66.9702 66.1904C70.0192 63.4284 72.0463 60.3884 74.2993 57.0504C77.9883 51.5854 80.0692 44.5024 74.5142 39.3644C72.7852 37.7654 70.8102 37.0154 68.7982 36.1154Z" fill="url(#paint4_radial_26_781)"/>
<path d="M55.7993 28.6512H61.7082V19.3642H54.3703H52.8532C52.8532 19.3642 47.2862 19.2262 43.7362 23.8392C43.7362 23.8392 41.3192 26.1182 41.2822 32.7922H41.2802V39.7572H32.5282V49.6182H41.2802V75.0942H51.3742V49.6182H60.0582L61.2682 39.7572H51.3742V32.7922H51.3722C51.3972 32.0132 51.7433 28.5812 55.7993 28.6512Z" fill="white"/>
<defs>
<radialGradient id="paint0_radial_26_781" cx="0" cy="0" r="1" gradientUnits="userSpaceOnUse" gradientTransform="translate(47.1188 47.1189) scale(47.1182)">
<stop offset="0.6407" stop-color="#4F70B6"/>
<stop offset="0.7501" stop-color="#4668B2"/>
<stop offset="0.9961" stop-color="#345AAA"/>
</radialGradient>
<linearGradient id="paint1_linear_26_781" x1="87.1429" y1="2.39845" x2="44.4963" y2="45.0451" gradientUnits="userSpaceOnUse">
<stop offset="0.3392" stop-color="#6884C0"/>
<stop offset="0.5982" stop-color="#4668B1" stop-opacity="0.3956"/>
<stop offset="0.7677" stop-color="#345AAA" stop-opacity="0"/>
</linearGradient>
<radialGradient id="paint2_radial_26_781" cx="0" cy="0" r="1" gradientUnits="userSpaceOnUse" gradientTransform="translate(48.0169 45.7259) scale(56.1393 56.1393)">
<stop offset="0.5177" stop-color="#385DAD"/>
<stop offset="0.598" stop-color="#3057AA"/>
<stop offset="0.7217" stop-color="#1A45A0"/>
<stop offset="0.7704" stop-color="#103D9C"/>
</radialGradient>
<linearGradient id="paint3_linear_26_781" x1="46.6655" y1="45.378" x2="80.8023" y2="11.2412" gradientUnits="userSpaceOnUse">
<stop offset="0.0912" stop-color="#123F9D" stop-opacity="0"/>
<stop offset="0.3036" stop-color="#3259AB" stop-opacity="0.4071"/>
<stop offset="0.4914" stop-color="#486BB4" stop-opacity="0.7671"/>
<stop offset="0.6129" stop-color="#5071B7"/>
</linearGradient>
<radialGradient id="paint4_radial_26_781" cx="0" cy="0" r="1" gradientUnits="userSpaceOnUse" gradientTransform="translate(46.2736 44.8755) scale(51.1576)">
<stop offset="0.3233" stop-color="#2851A6"/>
<stop offset="0.4315" stop-color="#2049A2"/>
<stop offset="0.6036" stop-color="#083199"/>
<stop offset="0.6561" stop-color="#002995"/>
</radialGradient>
</defs>
</svg>
