<svg width="95" height="95" viewBox="0 0 95 95" fill="none" xmlns="http://www.w3.org/2000/svg">
<path d="M93.9071 41.8902L84.1081 18.2352C82.7211 14.8872 80.0611 12.2272 76.7131 10.8402L53.0581 1.04123C49.7101 -0.345773 45.9481 -0.345773 42.5991 1.04123L18.9431 10.8402C15.5951 12.2272 12.9351 14.8872 11.5481 18.2352L1.75009 41.8902C0.363089 45.2382 0.363089 49.0002 1.75009 52.3482L11.5481 76.0042C12.9351 79.3522 15.5951 82.0132 18.9441 83.4002L42.6001 93.1982C45.9481 94.5852 49.7101 94.5852 53.0581 93.1982L76.7131 83.4002C80.0611 82.0132 82.7211 79.3532 84.1081 76.0052L93.9071 52.3492C95.2941 49.0002 95.2941 45.2382 93.9071 41.8902Z" fill="url(#paint0_radial_26_669)"/>
<path d="M46.6861 86.6192C45.3991 86.6192 44.1101 86.5262 42.8551 86.3422C39.7771 85.8912 36.9241 84.0572 34.6321 82.5842C30.4651 79.9042 26.6291 76.6962 23.2321 73.0492C20.3491 69.9532 17.8061 66.5622 15.6731 62.9712L15.3311 62.3972C13.2571 58.9112 11.1121 55.3062 9.90608 51.2042C7.73308 43.8132 7.37308 36.0712 8.94208 30.4932C10.8191 23.8272 15.8571 17.8232 24.3451 12.1362C31.3741 7.42725 39.5791 4.83325 47.4491 4.83325C49.7831 4.83325 52.0951 5.06124 54.3191 5.51024C62.3161 7.12524 70.1551 11.8142 76.3921 18.7122C78.6731 21.2353 80.8111 24.1162 82.7461 27.2752C83.3251 28.2212 83.8931 29.2032 84.4341 30.1932L84.9441 31.1202C86.8361 34.5542 88.9791 38.4453 89.3781 42.5573C90.7871 57.1022 75.7561 70.1522 68.5311 76.4242C63.1631 81.0852 58.1681 85.0393 51.3931 86.2122C49.8351 86.4822 48.2501 86.6192 46.6861 86.6192Z" fill="url(#paint1_linear_26_669)"/>
<path d="M81.8951 27.7972C80.0681 24.8142 77.9991 21.9792 75.6521 19.3832C69.9461 13.0722 62.4621 8.17526 54.1221 6.49026C44.0841 4.46226 33.4101 7.26625 24.9021 12.9663C18.4871 17.2643 12.0861 23.0153 9.90608 30.7633C8.17708 36.9072 9.08608 44.8673 10.8661 50.9213C12.1001 55.1193 14.3221 58.7383 16.5321 62.4603C18.6441 66.0163 21.1451 69.3403 23.9631 72.3673C27.2911 75.9413 31.0651 79.1012 35.1731 81.7432C37.5501 83.2712 40.1841 84.9412 42.9991 85.3532C45.7241 85.7523 48.5111 85.6973 51.2241 85.2273C57.9461 84.0623 62.8541 80.0303 67.8771 75.6683C76.9551 67.7873 89.6701 55.9292 88.3841 42.6532C87.9711 38.3912 85.5751 34.3602 83.5581 30.6722C83.0281 29.7012 82.4731 28.7422 81.8951 27.7972Z" fill="url(#paint2_radial_26_669)"/>
<path d="M50.2251 74.7913C46.7821 74.7913 43.3151 73.9073 40.1991 72.2333C37.7761 70.9323 35.8921 69.1073 34.0711 67.3433C33.4561 66.7463 32.8371 66.1463 32.1931 65.5623C29.3281 62.9623 26.3651 60.2743 23.9041 57.1433C21.0571 53.5203 17.5371 47.9603 19.8091 41.5313C20.7851 38.7673 22.4411 36.3893 24.0421 34.0893C25.2251 32.3913 26.4471 30.6363 27.3381 28.7853C27.9271 27.5633 28.4101 26.2233 28.8781 24.9283C29.8501 22.2353 30.8551 19.4503 32.9041 17.2783C35.2141 14.8323 38.3101 13.5393 41.8601 13.5393C46.1321 13.5393 50.8021 15.4963 54.0471 18.6443C56.1011 20.6383 57.7741 22.9493 59.3921 25.1833C60.6031 26.8573 61.8561 28.5873 63.2391 30.1343C65.1091 32.2243 66.7831 33.6393 68.3551 34.4573C68.8761 34.7293 69.3981 34.9713 69.9171 35.2033L70.6461 35.5253C72.4241 36.3063 74.2621 37.1133 75.9031 38.6313C80.8911 43.2443 80.8671 50.1613 75.8391 57.6113L75.7061 57.8083C73.5081 61.0663 71.4321 64.1443 68.3521 66.9333C62.9461 71.8303 56.7061 74.6193 50.7831 74.7843C50.5961 74.7883 50.4111 74.7913 50.2251 74.7913Z" fill="url(#paint3_linear_26_669)"/>
<path d="M69.5091 36.1163C68.9721 35.8763 68.4321 35.6253 67.8931 35.3443C65.8621 34.2863 64.0091 32.4933 62.4941 30.8003C59.2351 27.1563 56.8751 22.7813 53.3511 19.3613C48.2651 14.4243 39.0731 12.2003 33.6331 17.9633C30.7591 21.0083 30.0571 25.4463 28.2401 29.2183C26.1111 33.6383 22.4001 37.1973 20.7521 41.8633C18.8271 47.3123 21.2901 52.1963 24.6911 56.5243C27.0931 59.5803 29.9871 62.2083 32.8651 64.8213C35.4181 67.1373 37.5831 69.6933 40.6721 71.3523C43.7511 73.0053 47.2571 73.8813 50.7551 73.7843C57.0681 73.6073 63.0001 70.4313 67.6811 66.1923C70.7301 63.4303 72.7571 60.3893 75.0101 57.0523C78.6991 51.5873 80.7801 44.5043 75.2251 39.3663C73.4961 37.7663 71.5211 37.0163 69.5091 36.1163Z" fill="url(#paint4_radial_26_669)"/>
<path d="M33.6461 25.9983L74.1181 47.1233L33.6461 68.2403V25.9983Z" fill="white"/>
<path d="M33.6461 26.3193L68.8451 49.8653L74.1181 47.1233L36.7731 27.6353L33.6461 26.2773V26.3193Z" fill="#E8E0E0"/>
<defs>
<radialGradient id="paint0_radial_26_669" cx="0" cy="0" r="1" gradientUnits="userSpaceOnUse" gradientTransform="translate(47.8295 47.1195) scale(47.1182)">
<stop offset="0.7559" stop-color="#DE2925"/>
<stop offset="0.8228" stop-color="#DA2623"/>
<stop offset="0.8915" stop-color="#CE1C1C"/>
<stop offset="0.9609" stop-color="#B90C12"/>
<stop offset="1" stop-color="#AA000A"/>
</radialGradient>
<linearGradient id="paint1_linear_26_669" x1="87.8537" y1="2.39915" x2="45.2071" y2="45.0457" gradientUnits="userSpaceOnUse">
<stop offset="0.3189" stop-color="#E65D5A"/>
<stop offset="0.5744" stop-color="#E13A37" stop-opacity="0.3892"/>
<stop offset="0.7372" stop-color="#DE2925" stop-opacity="0"/>
</linearGradient>
<radialGradient id="paint2_radial_26_669" cx="0" cy="0" r="1" gradientUnits="userSpaceOnUse" gradientTransform="translate(48.7276 45.7266) scale(56.1393 56.1393)">
<stop offset="0.521" stop-color="#D20500"/>
<stop offset="0.6896" stop-color="#A80500"/>
<stop offset="0.8327" stop-color="#880500"/>
</radialGradient>
<linearGradient id="paint3_linear_26_669" x1="79.1848" y1="13.5702" x2="47.1444" y2="45.6105" gradientUnits="userSpaceOnUse">
<stop offset="0.5138" stop-color="#E34B48"/>
<stop offset="0.6669" stop-color="#E13A37" stop-opacity="0.554"/>
<stop offset="0.8571" stop-color="#DE2925" stop-opacity="0"/>
</linearGradient>
<radialGradient id="paint4_radial_26_669" cx="0" cy="0" r="1" gradientUnits="userSpaceOnUse" gradientTransform="translate(46.9844 44.876) scale(51.1576 51.1576)">
<stop offset="0.3882" stop-color="#AE0500"/>
<stop offset="0.4798" stop-color="#9C0403"/>
<stop offset="0.7276" stop-color="#6D000A"/>
</radialGradient>
</defs>
</svg>
