<svg width="95" height="95" viewBox="0 0 95 95" fill="none" xmlns="http://www.w3.org/2000/svg">
<path d="M93.6695 41.8902L83.8705 18.2352C82.4835 14.8872 79.8235 12.2272 76.4755 10.8402L52.8205 1.04123C49.4725 -0.345773 45.7105 -0.345773 42.3625 1.04123L18.7065 10.8402C15.3585 12.2272 12.6985 14.8872 11.3115 18.2352L1.51349 41.8902C0.126486 45.2382 0.126486 49.0002 1.51349 52.3482L11.3115 76.0042C12.6985 79.3522 15.3585 82.0132 18.7075 83.4002L42.3635 93.1982C45.7115 94.5852 49.4735 94.5852 52.8215 93.1982L76.4765 83.4002C79.8245 82.0132 82.4845 79.3532 83.8715 76.0052L93.6705 52.3502C95.0565 49.0012 95.0565 45.2392 93.6695 41.8902Z" fill="url(#paint0_radial_26_648)"/>
<path d="M46.4485 86.6202C45.1615 86.6202 43.8725 86.5272 42.6175 86.3432C39.5395 85.8922 36.6865 84.0582 34.3945 82.5852C30.2275 79.9052 26.3915 76.6972 22.9945 73.0502C20.1115 69.9542 17.5685 66.5632 15.4355 62.9722L15.0935 62.3982C13.0195 58.9122 10.8745 55.3072 9.66848 51.2052C7.49548 43.8142 7.13546 36.0722 8.70446 30.4942C10.5815 23.8282 15.6195 17.8242 24.1075 12.1372C31.1365 7.42823 39.3415 4.83423 47.2115 4.83423C49.5455 4.83423 51.8575 5.06223 54.0815 5.51123C62.0785 7.12623 69.9175 11.8152 76.1545 18.7132C78.4355 21.2362 80.5735 24.1172 82.5075 27.2762C83.0865 28.2222 83.6545 29.2042 84.1955 30.1942L84.7055 31.1212C86.5975 34.5542 88.7405 38.4462 89.1395 42.5582C90.5485 57.1032 75.5175 70.1532 68.2925 76.4252C62.9245 81.0862 57.9295 85.0402 51.1545 86.2132C49.5975 86.4832 48.0125 86.6202 46.4485 86.6202Z" fill="url(#paint1_linear_26_648)"/>
<path d="M81.6575 27.7973C79.8305 24.8143 77.7625 21.9793 75.4145 19.3833C69.7085 13.0723 62.2245 8.17526 53.8845 6.49026C43.8465 4.46226 33.1725 7.26625 24.6645 12.9663C18.2495 17.2643 11.8485 23.0153 9.66848 30.7633C7.93948 36.9073 8.84847 44.8673 10.6285 50.9213C11.8625 55.1193 14.0845 58.7383 16.2945 62.4603C18.4065 66.0163 20.9075 69.3403 23.7265 72.3673C27.0545 75.9413 30.8285 79.1013 34.9365 81.7433C37.3135 83.2713 39.9475 84.9413 42.7625 85.3533C45.4875 85.7523 48.2745 85.6973 50.9875 85.2273C57.7095 84.0623 62.6165 80.0303 67.6405 75.6693C76.7185 67.7883 89.4335 55.9303 88.1475 42.6543C87.7345 38.3923 85.3385 34.3613 83.3225 30.6733C82.7895 29.7013 82.2355 28.7423 81.6575 27.7973Z" fill="url(#paint2_radial_26_648)"/>
<path d="M49.9875 74.7913C46.5445 74.7913 43.0775 73.9073 39.9615 72.2333C37.5385 70.9323 35.6545 69.1083 33.8335 67.3433C33.2185 66.7463 32.5995 66.1463 31.9555 65.5623C29.0905 62.9623 26.1275 60.2743 23.6665 57.1433C20.8195 53.5203 17.2995 47.9603 19.5715 41.5313C20.5475 38.7673 22.2035 36.3893 23.8045 34.0893C24.9875 32.3913 26.2095 30.6363 27.1005 28.7853C27.6895 27.5633 28.1725 26.2233 28.6405 24.9283C29.6125 22.2353 30.6175 19.4503 32.6665 17.2783C34.9765 14.8323 38.0725 13.5393 41.6225 13.5393C45.8945 13.5393 50.5645 15.4963 53.8085 18.6443C55.8625 20.6383 57.5355 22.9493 59.1535 25.1843C60.3645 26.8583 61.6175 28.5883 63.0005 30.1353C64.8705 32.2253 66.5445 33.6403 68.1165 34.4583C68.6365 34.7303 69.1595 34.9723 69.6775 35.2043L70.4065 35.5263C72.1845 36.3073 74.0225 37.1143 75.6635 38.6323C80.6515 43.2453 80.6275 50.1623 75.5995 57.6113L75.4665 57.8083C73.2685 61.0663 71.1925 64.1443 68.1135 66.9333C62.7075 71.8303 56.4665 74.6193 50.5445 74.7843C50.3585 74.7893 50.1725 74.7913 49.9875 74.7913Z" fill="url(#paint3_linear_26_648)"/>
<path d="M69.2715 36.1163C68.7345 35.8763 68.1945 35.6253 67.6555 35.3443C65.6245 34.2863 63.7715 32.4933 62.2565 30.8003C58.9975 27.1563 56.6365 22.7813 53.1135 19.3613C48.0275 14.4243 38.8355 12.2013 33.3955 17.9633C30.5215 21.0073 29.8185 25.4463 28.0025 29.2183C25.8735 33.6383 22.1625 37.1973 20.5145 41.8633C18.5895 47.3123 21.0525 52.1963 24.4535 56.5243C26.8555 59.5803 29.7495 62.2083 32.6275 64.8213C35.1805 67.1373 37.3455 69.6933 40.4345 71.3523C43.5135 73.0053 47.0195 73.8823 50.5175 73.7843C56.8305 73.6073 62.7625 70.4313 67.4435 66.1913C70.4925 63.4293 72.5195 60.3893 74.7725 57.0513C78.4615 51.5863 80.5425 44.5033 74.9875 39.3653C73.2575 37.7663 71.2835 37.0163 69.2715 36.1163Z" fill="url(#paint4_radial_26_648)"/>
<path d="M58.9825 17.5403H36.2025C26.1015 17.5403 17.9135 25.7283 17.9135 35.8303V58.6083C17.9135 68.7073 26.1005 76.8943 36.2025 76.8943H58.9825C69.0835 76.8943 77.2695 68.7073 77.2695 58.6083V35.8303C77.2695 25.7283 69.0835 17.5403 58.9825 17.5403ZM71.5725 56.4223C71.5725 64.5853 64.9545 71.1993 56.7965 71.1993H38.3875C30.2255 71.1993 23.6085 64.5853 23.6085 56.4223V38.0133C23.6085 29.8553 30.2245 23.2363 38.3875 23.2363H56.7965C64.9545 23.2363 71.5725 29.8553 71.5725 38.0133V56.4223Z" fill="white"/>
<path d="M48.3885 31.6882C39.7515 31.6882 32.7525 38.6852 32.7525 47.3212C32.7525 55.9532 39.7515 62.9552 48.3885 62.9552C57.0225 62.9552 64.0225 55.9532 64.0225 47.3212C64.0215 38.6852 57.0215 31.6882 48.3885 31.6882ZM48.3885 56.7272C43.1895 56.7272 38.9805 52.5142 38.9805 47.3212C38.9805 42.1232 43.1895 37.9152 48.3885 37.9152C53.5815 37.9152 57.7935 42.1232 57.7935 47.3212C57.7935 52.5142 53.5815 56.7272 48.3885 56.7272Z" fill="white"/>
<path d="M66.9155 31.4443C66.9155 33.6403 65.1325 35.4193 62.9385 35.4193C60.7435 35.4193 58.9645 33.6403 58.9645 31.4443C58.9645 29.2493 60.7435 27.4663 62.9385 27.4663C65.1325 27.4663 66.9155 29.2493 66.9155 31.4443Z" fill="white"/>
<defs>
<radialGradient id="paint0_radial_26_648" cx="0" cy="0" r="1" gradientUnits="userSpaceOnUse" gradientTransform="translate(47.5917 47.1198) scale(47.1182 47.1182)">
<stop offset="0.6469" stop-color="#E632B7"/>
<stop offset="0.708" stop-color="#DF33B5"/>
<stop offset="0.795" stop-color="#CD36B0"/>
<stop offset="0.897" stop-color="#AE3BA8"/>
<stop offset="0.9974" stop-color="#89419E"/>
</radialGradient>
<linearGradient id="paint1_linear_26_648" x1="79.3526" y1="10.6628" x2="45.9058" y2="44.1096" gradientUnits="userSpaceOnUse">
<stop offset="0.2584" stop-color="#D852D2"/>
<stop offset="1" stop-color="#FF51A3" stop-opacity="0"/>
</linearGradient>
<radialGradient id="paint2_radial_26_648" cx="0" cy="0" r="1" gradientUnits="userSpaceOnUse" gradientTransform="translate(48.4899 45.7269) scale(56.1393 56.1393)">
<stop offset="0.4761" stop-color="#C841A3"/>
<stop offset="0.5545" stop-color="#C53FA2"/>
<stop offset="0.6135" stop-color="#BB3A9F"/>
<stop offset="0.666" stop-color="#AB3199"/>
<stop offset="0.7146" stop-color="#952591"/>
<stop offset="0.7584" stop-color="#791688"/>
</radialGradient>
<linearGradient id="paint3_linear_26_648" x1="71.5287" y1="20.9888" x2="41.4869" y2="51.0307" gradientUnits="userSpaceOnUse">
<stop offset="0.2519" stop-color="#D95AB1"/>
<stop offset="1" stop-color="#FF51A3" stop-opacity="0"/>
</linearGradient>
<radialGradient id="paint4_radial_26_648" cx="0" cy="0" r="1" gradientUnits="userSpaceOnUse" gradientTransform="translate(46.7467 44.8764) scale(51.1576 51.1576)">
<stop offset="0.2803" stop-color="#AE1489"/>
<stop offset="0.355" stop-color="#AA1387"/>
<stop offset="0.4298" stop-color="#9E1081"/>
<stop offset="0.5049" stop-color="#8A0B78"/>
<stop offset="0.5796" stop-color="#6E046B"/>
<stop offset="0.6166" stop-color="#5D0063"/>
</radialGradient>
</defs>
</svg>
