<svg width="1920" height="1080" viewBox="0 0 1920 1080" fill="none" xmlns="http://www.w3.org/2000/svg">
<mask id="mask0_9_111" style="mask-type:luminance" maskUnits="userSpaceOnUse" x="0" y="0" width="1920" height="1080">
<path d="M1920 0H0V1080H1920V0Z" fill="white"/>
</mask>
<g mask="url(#mask0_9_111)">
<path d="M0 604.992C0 604.992 213.033 310.42 378.506 588.92C378.506 588.92 258.542 109.296 0 190.292V604.992Z" fill="url(#paint0_linear_9_111)"/>
</g>
<mask id="mask1_9_111" style="mask-type:luminance" maskUnits="userSpaceOnUse" x="0" y="0" width="1920" height="1080">
<path d="M1920 0H0V1080H1920V0Z" fill="white"/>
</mask>
<g mask="url(#mask1_9_111)">
<path d="M0 330.48C0 330.48 211.86 166.32 365.46 559.44C519.06 952.56 1102.74 550.8 1220.5 835.92C1338.26 1121.04 1703.02 28.08 1920 386.64C1920 386.64 1871.98 41.04 960 399.6C48.0205 758.16 170.9 0 821.14 0H0V330.48Z" fill="url(#paint1_linear_9_111)"/>
</g>
<mask id="mask2_9_111" style="mask-type:luminance" maskUnits="userSpaceOnUse" x="0" y="0" width="1920" height="1080">
<path d="M1920 0H0V1080H1920V0Z" fill="white"/>
</mask>
<g mask="url(#mask2_9_111)">
<path d="M1372.81 808.702C1376.69 805.384 1879.29 375.853 1920 604.992V386.64C1765.04 130.574 1534.72 614.794 1372.81 808.702Z" fill="url(#paint2_linear_9_111)"/>
</g>
<mask id="mask3_9_111" style="mask-type:luminance" maskUnits="userSpaceOnUse" x="0" y="0" width="1920" height="1080">
<path d="M1920 0H0V1080H1920V0Z" fill="white"/>
</mask>
<g mask="url(#mask3_9_111)">
<path d="M1112.27 575.834C691.538 802.926 507.213 721.151 451.459 680.793C671.539 854.589 1119.02 590.214 1220.5 835.92C1244.15 893.182 1277.77 894.851 1318.14 863.864C1336.82 847.742 1357.46 830.25 1372.81 808.7C1395.21 781.881 1418.91 749.511 1443.53 714.314C1534.23 555.278 1538.3 345.883 1112.27 575.834Z" fill="url(#paint3_linear_9_111)"/>
</g>
<mask id="mask4_9_111" style="mask-type:luminance" maskUnits="userSpaceOnUse" x="0" y="0" width="1920" height="1080">
<path d="M1920 0H0V1080H1920V0Z" fill="white"/>
</mask>
<g mask="url(#mask4_9_111)">
<path d="M698.222 744.468C722.417 743.891 746.555 742.409 770.637 740.493C794.726 738.638 818.77 736.366 842.808 734.031C866.842 731.668 890.9 729.404 915.011 727.499C939.118 725.613 963.297 724.125 987.538 723.699C1011.77 723.352 1036.09 724.058 1060.14 726.941C1061.65 727.114 1063.16 727.257 1064.66 727.456L1069.14 728.155L1078.09 729.555C1084.05 730.547 1089.9 731.959 1095.82 733.141L1104.5 735.478L1108.84 736.657C1110.3 737.033 1111.74 737.439 1113.13 737.962L1121.57 740.886L1125.78 742.357L1129.85 744.107C1151.69 753.131 1171.29 766.042 1186.58 781.989C1201.8 798.012 1212.65 816.638 1220.5 835.92C1212.26 816.752 1201.04 798.34 1185.61 782.657C1170.23 766.966 1150.69 754.35 1128.99 745.602L1124.95 743.902L1120.76 742.481L1112.38 739.655C1109.61 738.653 1106.67 738.05 1103.83 737.23L1095.22 734.938C1089.35 733.782 1083.55 732.398 1077.64 731.43L1068.74 730.067L1064.3 729.384C1062.81 729.19 1061.31 729.054 1059.81 728.885C1035.92 726.084 1011.72 725.451 987.584 725.853C939.256 726.607 891.136 731.413 843.021 735.67C818.954 737.802 794.872 739.902 770.742 741.534C746.606 743.107 722.422 744.241 698.222 744.468Z" fill="url(#paint4_linear_9_111)"/>
</g>
<mask id="mask5_9_111" style="mask-type:luminance" maskUnits="userSpaceOnUse" x="0" y="0" width="1920" height="1080">
<path d="M1920 0H0V1080H1920V0Z" fill="white"/>
</mask>
<g mask="url(#mask5_9_111)">
<path d="M1492.16 575.817C1492.85 565.253 1492.71 554.638 1491.17 544.156C1489.62 533.695 1486.64 523.318 1481.35 513.791C1476.1 504.276 1468.35 495.718 1458.44 489.445C1448.57 483.119 1436.79 479.183 1424.66 477.185C1412.51 475.165 1399.97 474.738 1387.57 475.66L1382.92 475.921C1381.37 476.027 1379.83 476.256 1378.29 476.418L1369.03 477.479C1365.95 477.904 1362.91 478.479 1359.85 478.971C1356.8 479.527 1353.71 479.894 1350.7 480.615C1326.42 485.516 1302.83 492.698 1279.8 500.878C1233.82 517.534 1189.84 537.948 1147.05 559.892C1136.31 565.324 1125.81 571.089 1115.18 576.673L1083.25 593.536L1075.27 597.752L1067.17 601.817L1050.97 609.928C1045.56 612.606 1040.21 615.391 1034.73 617.983L1018.29 625.75C974.372 646.324 929.283 665.209 882.829 681.437C859.671 689.692 835.976 696.833 812.137 703.581C788.119 709.854 763.948 715.835 739.256 719.995C714.621 724.285 689.705 727.52 664.594 729.065C639.496 730.549 614.208 730.406 589.197 727.946C564.232 725.343 539.494 720.619 516.05 712.923C492.626 705.264 470.474 694.624 451.459 680.795C470.746 694.354 493.036 704.64 516.495 711.934C539.973 719.265 564.641 723.609 589.473 725.844C614.336 728.05 639.439 728.024 664.351 726.343C689.272 724.611 713.997 721.2 738.429 716.746L756.705 713.193L774.817 709.076L783.867 707.005L792.835 704.683L810.765 700.028C834.455 693.25 858.01 686.085 881.039 677.804C927.235 661.53 972.083 642.585 1015.8 621.979L1032.22 614.278C1037.69 611.708 1043.03 608.945 1048.44 606.288L1064.63 598.242L1072.71 594.21L1080.69 590.026L1112.61 573.281C1123.29 567.711 1133.84 561.959 1144.63 556.537C1187.66 534.697 1231.77 514.108 1278.28 497.826C1301.55 489.778 1325.39 482.728 1349.98 477.967C1353.02 477.265 1356.16 476.915 1359.24 476.377C1362.35 475.904 1365.43 475.347 1368.55 474.941L1377.95 473.939C1379.51 473.787 1381.07 473.569 1382.65 473.474L1387.38 473.245C1399.96 472.422 1412.75 472.913 1425.16 475.129C1437.54 477.345 1449.58 481.561 1459.58 488.197C1469.62 494.778 1477.35 503.641 1482.48 513.352C1487.65 523.083 1490.44 533.572 1491.79 544.093C1493.13 554.638 1493.06 565.266 1492.16 575.817Z" fill="url(#paint5_radial_9_111)"/>
</g>
<mask id="mask6_9_111" style="mask-type:luminance" maskUnits="userSpaceOnUse" x="0" y="0" width="1920" height="1080">
<path d="M1920 0H0V1080H1920V0Z" fill="white"/>
</mask>
<g mask="url(#mask6_9_111)">
<path d="M1691.86 240.147C1551.32 225.428 1324.78 256.182 960 399.6C569.247 553.23 368.497 501.844 317.793 392.928C317.76 392.941 317.821 392.917 317.788 392.93C359.45 502.438 488.11 521.595 574.986 521.258C607.852 521.13 631.795 546.804 624.602 573.862C596.805 678.411 808.691 687.839 1053.25 462.959C1337.83 201.277 1690.79 240.028 1691.86 240.147Z" fill="url(#paint6_linear_9_111)"/>
</g>
<mask id="mask7_9_111" style="mask-type:luminance" maskUnits="userSpaceOnUse" x="0" y="0" width="1920" height="1080">
<path d="M1920 0H0V1080H1920V0Z" fill="white"/>
</mask>
<g mask="url(#mask7_9_111)">
<path d="M1726.64 226.288C1756.23 226.288 1780.22 206.047 1780.22 181.079C1780.22 156.111 1756.23 135.87 1726.64 135.87C1697.05 135.87 1673.06 156.111 1673.06 181.079C1673.06 206.047 1697.05 226.288 1726.64 226.288Z" fill="url(#paint7_radial_9_111)"/>
</g>
<mask id="mask8_9_111" style="mask-type:luminance" maskUnits="userSpaceOnUse" x="0" y="0" width="1920" height="1080">
<path d="M1920 0H0V1080H1920V0Z" fill="white"/>
</mask>
<g mask="url(#mask8_9_111)">
<path d="M540.14 358.197C569.731 358.197 593.72 337.956 593.72 312.988C593.72 288.02 569.731 267.78 540.14 267.78C510.548 267.78 486.559 288.02 486.559 312.988C486.559 337.956 510.548 358.197 540.14 358.197Z" fill="url(#paint8_radial_9_111)"/>
</g>
<mask id="mask9_9_111" style="mask-type:luminance" maskUnits="userSpaceOnUse" x="0" y="0" width="1920" height="1080">
<path d="M1920 0H0V1080H1920V0Z" fill="white"/>
</mask>
<g mask="url(#mask9_9_111)">
<path d="M332.764 702.624C348.25 702.624 360.804 692.032 360.804 678.966C360.804 665.9 348.25 655.307 332.764 655.307C317.278 655.307 304.724 665.9 304.724 678.966C304.724 692.032 317.278 702.624 332.764 702.624Z" fill="url(#paint9_radial_9_111)"/>
</g>
<mask id="mask10_9_111" style="mask-type:luminance" maskUnits="userSpaceOnUse" x="0" y="0" width="1920" height="1080">
<path d="M1920 0H0V1080H1920V0Z" fill="white"/>
</mask>
<g mask="url(#mask10_9_111)">
<path d="M1538.06 752.458C1553.55 752.458 1566.1 741.865 1566.1 728.799C1566.1 715.733 1553.55 705.141 1538.06 705.141C1522.57 705.141 1510.02 715.733 1510.02 728.799C1510.02 741.865 1522.57 752.458 1538.06 752.458Z" fill="url(#paint10_radial_9_111)"/>
</g>
<mask id="mask11_9_111" style="mask-type:luminance" maskUnits="userSpaceOnUse" x="0" y="0" width="1920" height="1080">
<path d="M1920 0H0V1080H1920V0Z" fill="white"/>
</mask>
<g mask="url(#mask11_9_111)">
<path d="M1372.81 563.658C1388.3 563.658 1400.85 553.066 1400.85 540C1400.85 526.934 1388.3 516.341 1372.81 516.341C1357.33 516.341 1344.77 526.934 1344.77 540C1344.77 553.066 1357.33 563.658 1372.81 563.658Z" fill="url(#paint11_radial_9_111)"/>
</g>
<mask id="mask12_9_111" style="mask-type:luminance" maskUnits="userSpaceOnUse" x="0" y="0" width="1920" height="1080">
<path d="M1920 0H0V1080H1920V0Z" fill="white"/>
</mask>
<g mask="url(#mask12_9_111)">
<path d="M960 906.474C1001.96 906.474 1035.97 877.777 1035.97 842.376C1035.97 806.976 1001.96 778.278 960 778.278C918.044 778.278 884.032 806.976 884.032 842.376C884.032 877.777 918.044 906.474 960 906.474Z" fill="url(#paint12_radial_9_111)"/>
</g>
<mask id="mask13_9_111" style="mask-type:luminance" maskUnits="userSpaceOnUse" x="0" y="0" width="1920" height="1080">
<path d="M1920 0H0V1080H1920V0Z" fill="white"/>
</mask>
<g mask="url(#mask13_9_111)">
<path d="M930.732 -389.292C889.859 -358.599 848.663 -328.221 807.637 -297.676L684.017 -206.574C642.877 -176.139 601.385 -146.053 560.056 -115.804L435.968 -25.1618L311.429 65.0398C269.873 95.0638 228.503 125.271 186.76 155.114L61.7421 244.849C19.8861 274.581 -21.7958 304.482 -63.8029 334.066C-22.9325 303.37 18.263 272.989 59.2845 242.443L182.902 151.338C224.036 120.9 265.544 90.828 306.865 60.5729L430.958 -30.065L555.502 -120.262C597.053 -150.293 638.436 -180.487 680.177 -210.332L805.192 -300.069C847.045 -329.804 888.727 -359.707 930.732 -389.292Z" fill="url(#paint13_radial_9_111)"/>
</g>
<mask id="mask14_9_111" style="mask-type:luminance" maskUnits="userSpaceOnUse" x="0" y="0" width="1920" height="1080">
<path d="M1920 0H0V1080H1920V0Z" fill="white"/>
</mask>
<g mask="url(#mask14_9_111)">
<path d="M1886.6 670.574C1845.73 701.268 1804.53 731.646 1763.51 762.191L1639.89 853.293C1598.75 883.727 1557.26 913.814 1515.93 944.063L1391.84 1034.7L1267.3 1124.91C1225.74 1154.93 1184.37 1185.14 1142.63 1214.98L1017.61 1304.72C975.757 1334.45 934.075 1364.35 892.068 1393.93C932.938 1363.24 974.134 1332.86 1015.16 1302.31L1138.77 1211.2C1179.91 1180.77 1221.41 1150.7 1262.74 1120.44L1386.83 1029.8L1511.37 939.604C1552.92 909.574 1594.31 879.379 1636.05 849.535L1761.06 759.797C1802.92 730.063 1844.6 700.162 1886.6 670.574Z" fill="url(#paint14_radial_9_111)"/>
</g>
<mask id="mask15_9_111" style="mask-type:luminance" maskUnits="userSpaceOnUse" x="0" y="0" width="1920" height="1080">
<path d="M1920 0H0V1080H1920V0Z" fill="white"/>
</mask>
<g mask="url(#mask15_9_111)">
<path d="M857.533 540C816.66 570.694 775.465 601.072 734.438 631.616L610.821 722.719C569.684 753.153 528.189 783.24 486.863 813.488L362.772 904.131L238.234 994.332C196.675 1024.36 155.308 1054.56 113.564 1084.41L-11.4509 1174.14C-53.3069 1203.87 -94.9888 1233.77 -136.996 1263.36C-96.1254 1232.66 -54.9299 1202.28 -13.9085 1171.74L109.709 1080.63C150.843 1050.19 192.353 1020.12 233.672 989.865L357.765 899.227L482.309 809.03C523.86 779 565.243 748.805 606.984 718.96L731.999 629.223C773.847 599.489 815.529 569.588 857.533 540Z" fill="url(#paint15_radial_9_111)"/>
</g>
<mask id="mask16_9_111" style="mask-type:luminance" maskUnits="userSpaceOnUse" x="0" y="0" width="1920" height="1080">
<path d="M1920 0H0V1080H1920V0Z" fill="white"/>
</mask>
<g mask="url(#mask16_9_111)">
<path d="M2417.27 -361.679C2376.39 -330.985 2335.2 -300.607 2294.17 -270.063L2170.55 -178.96C2129.42 -148.526 2087.92 -118.439 2046.59 -88.1906L1922.5 2.45157L1797.96 92.6532C1756.41 122.677 1715.04 152.885 1673.3 182.727L1548.28 272.462C1506.42 302.195 1464.74 332.096 1422.73 361.679C1463.6 330.983 1504.8 300.603 1545.82 270.056L1669.44 178.952C1710.57 148.513 1752.08 118.441 1793.4 88.1863L1917.49 -2.4516L2042.04 -92.6489C2083.59 -122.679 2124.97 -152.874 2166.71 -182.719L2291.73 -272.456C2333.58 -302.191 2375.26 -332.091 2417.27 -361.679Z" fill="url(#paint16_radial_9_111)"/>
</g>
<mask id="mask17_9_111" style="mask-type:luminance" maskUnits="userSpaceOnUse" x="0" y="0" width="1920" height="1080">
<path d="M1920 0H0V1080H1920V0Z" fill="white"/>
</mask>
<g mask="url(#mask17_9_111)">
<path d="M960 399.6C903.588 421.969 845.87 442.117 786.665 458.687L764.424 464.797L741.965 470.316L730.734 473.075L719.401 475.513L696.722 480.36C666.307 486.205 635.579 490.955 604.554 493.886C573.527 496.694 542.182 497.485 511.032 495.394C495.457 494.387 479.977 492.417 464.673 489.715L461.796 489.24L458.962 488.607L453.292 487.339C449.516 486.479 445.722 485.68 441.964 484.771L430.866 481.548L425.318 479.937C423.47 479.397 421.711 478.658 419.904 478.03L409.126 474.096C405.558 472.744 402.181 471.048 398.697 469.541C391.631 466.655 385.267 462.75 378.632 459.238C366.001 451.423 354.097 442.677 344.082 432.449C334.203 422.165 325.793 410.879 319.355 398.788C313.183 386.603 308.826 373.82 306.12 360.776C303.821 347.678 303.124 334.424 303.869 321.216C304.118 317.92 304.563 314.634 304.901 311.345L305.454 306.411L306.376 301.519C307.011 298.261 307.558 294.989 308.268 291.743L310.825 282.077C311.278 280.472 311.619 278.843 312.164 277.258L313.782 272.499C314.883 269.333 315.886 266.142 317.069 262.997L320.94 253.655C321.595 252.102 322.207 250.534 322.898 248.992L325.135 244.419L329.608 235.274L334.63 226.336C337.83 220.311 341.775 214.609 345.446 208.79C347.226 205.852 349.399 203.105 351.391 200.271L357.501 191.832L364.076 183.648C366.285 180.93 368.389 178.148 370.801 175.554C375.552 170.325 380.009 164.899 385.124 159.913L392.594 152.299C395.067 149.748 397.806 147.394 400.399 144.932C421.371 125.403 444.687 107.693 469.732 91.9706C519.841 60.4886 576.806 37.098 636.521 21.9154C666.412 14.4029 696.96 8.64864 727.887 5.23584C758.802 1.72584 789.97 0.08208 821.14 0C789.97 0.2592 758.828 2.07792 727.98 5.75856C697.111 9.33984 666.655 15.2604 636.89 22.9262C577.359 38.2234 520.604 61.6421 470.756 93.1219C445.839 108.84 422.659 126.528 401.83 146.016C399.255 148.472 396.534 150.822 394.079 153.366L386.665 160.961C381.583 165.933 377.167 171.344 372.449 176.556C370.053 179.142 367.972 181.915 365.778 184.622L359.258 192.778L353.203 201.182C351.232 204.006 349.074 206.742 347.313 209.667C343.677 215.46 339.771 221.139 336.609 227.13L331.643 236.023L327.224 245.119L325.015 249.666C324.334 251.199 323.73 252.757 323.082 254.301L319.263 263.585C318.1 266.708 317.112 269.877 316.029 273.022L314.437 277.746C313.9 279.318 313.567 280.936 313.121 282.528L310.61 292.118C309.916 295.337 309.384 298.581 308.762 301.81L307.86 306.659L307.325 311.545C307 314.805 306.568 318.06 306.33 321.322C305.626 334.396 306.368 347.494 308.649 360.426C311.288 373.304 315.551 385.921 321.603 397.95C327.918 409.884 336.177 421.021 345.889 431.183C355.738 441.288 367.465 449.941 379.924 457.691C386.478 461.173 392.753 465.05 399.741 467.919C403.185 469.418 406.52 471.102 410.053 472.448L420.721 476.364C422.51 476.993 424.251 477.727 426.081 478.267L431.58 479.876L442.578 483.095C446.305 484.006 450.071 484.805 453.816 485.665L459.441 486.935L462.254 487.57L465.111 488.048C480.307 490.761 495.695 492.75 511.194 493.782C542.188 495.923 573.427 495.199 604.378 492.458C635.328 489.592 666.004 484.913 696.387 479.138L719.043 474.34L730.368 471.925L741.591 469.191L764.037 463.724L786.278 457.682C845.553 441.469 903.411 421.651 960 399.6Z" fill="url(#paint17_linear_9_111)"/>
</g>
<mask id="mask18_9_111" style="mask-type:luminance" maskUnits="userSpaceOnUse" x="0" y="0" width="1920" height="1080">
<path d="M1920 0H0V1080H1920V0Z" fill="white"/>
</mask>
<g mask="url(#mask18_9_111)">
<path d="M1920 386.64L1913.13 376.391C1910.77 373.013 1908.2 369.738 1905.75 366.412C1903.25 363.113 1900.47 359.973 1897.85 356.75C1895.09 353.607 1892.12 350.605 1889.26 347.538C1883.08 341.742 1876.76 336.001 1869.41 331.322C1865.92 328.784 1861.95 326.834 1858.14 324.702C1854.08 322.944 1850.14 320.967 1845.81 319.758C1837.36 316.999 1828.36 315.33 1819.3 315.474C1810.26 315.511 1801.27 316.913 1792.61 319.237C1784.01 321.769 1775.75 325.084 1767.85 328.99C1760.06 333.042 1752.45 337.383 1745.33 342.317C1716.69 361.865 1692.43 385.789 1669.85 410.514C1647.31 435.344 1626.49 461.313 1606.46 487.706C1586.4 514.089 1567.15 540.929 1548.21 567.94C1529.15 594.89 1510.65 622.13 1491.72 649.177C1453.93 703.253 1416.68 757.864 1372.81 808.7C1393.49 782.579 1412.74 755.713 1431.32 728.518C1450.1 701.425 1468.37 674.071 1486.6 646.693C1523.1 591.959 1559.9 537.285 1600 484.212C1620.23 457.782 1641.18 431.685 1664.11 406.769C1675.63 394.349 1687.62 382.218 1700.39 370.641C1713.11 359.046 1726.78 348.101 1741.71 338.407C1749.09 333.48 1757.03 329.126 1765.16 325.078C1773.41 321.17 1782.08 317.853 1791.13 315.354C1800.26 313.057 1809.78 311.723 1819.35 311.839C1828.93 311.856 1838.45 313.729 1847.2 316.822C1851.69 318.216 1855.73 320.371 1859.86 322.309C1863.73 324.609 1867.74 326.737 1871.23 329.426C1878.58 334.422 1884.78 340.42 1890.81 346.442C1902.48 358.826 1911.84 372.535 1920 386.64Z" fill="url(#paint18_radial_9_111)"/>
</g>
<defs>
<linearGradient id="paint0_linear_9_111" x1="212.059" y1="614.351" x2="80.1962" y2="257.62" gradientUnits="userSpaceOnUse">
<stop stop-color="#339296"/>
<stop offset="0.0752" stop-color="#348793"/>
<stop offset="1" stop-color="#40006A"/>
</linearGradient>
<linearGradient id="paint1_linear_9_111" x1="0" y1="441.968" x2="1920" y2="441.968" gradientUnits="userSpaceOnUse">
<stop stop-color="#E73DB3"/>
<stop offset="0.1899" stop-color="#C731A5"/>
<stop offset="1" stop-color="#40006A"/>
</linearGradient>
<linearGradient id="paint2_linear_9_111" x1="1726.47" y1="686.357" x2="1589.56" y2="466.395" gradientUnits="userSpaceOnUse">
<stop stop-color="#33F696"/>
<stop offset="0.4473" stop-color="#398682"/>
<stop offset="1" stop-color="#40006A"/>
</linearGradient>
<linearGradient id="paint3_linear_9_111" x1="1271.42" y1="400.528" x2="1030.88" y2="726.335" gradientUnits="userSpaceOnUse">
<stop stop-color="#E73DB3"/>
<stop offset="0.1899" stop-color="#C731A5"/>
<stop offset="1" stop-color="#40006A"/>
</linearGradient>
<linearGradient id="paint4_linear_9_111" x1="698.222" y1="779.769" x2="1221.73" y2="779.769" gradientUnits="userSpaceOnUse">
<stop stop-color="white"/>
<stop offset="1" stop-color="white" stop-opacity="0.3"/>
</linearGradient>
<radialGradient id="paint5_radial_9_111" cx="0" cy="0" r="1" gradientUnits="userSpaceOnUse" gradientTransform="translate(972.138 601.444) scale(385.525 325.287)">
<stop stop-color="white"/>
<stop offset="1" stop-color="white" stop-opacity="0.3"/>
</radialGradient>
<linearGradient id="paint6_linear_9_111" x1="1086.53" y1="626.762" x2="1044.38" y2="401.983" gradientUnits="userSpaceOnUse">
<stop stop-color="#E73DB3"/>
<stop offset="0.1899" stop-color="#C731A5"/>
<stop offset="1" stop-color="#40006A"/>
</linearGradient>
<radialGradient id="paint7_radial_9_111" cx="0" cy="0" r="1" gradientUnits="userSpaceOnUse" gradientTransform="translate(1726.64 181.079) scale(53.5818 45.2097)">
<stop offset="0.0013" stop-color="#9BFBFF"/>
<stop offset="0.07" stop-color="#6AE1EC"/>
<stop offset="0.145" stop-color="#3BC7DA"/>
<stop offset="0.2026" stop-color="#1EB8CF"/>
<stop offset="0.2355" stop-color="#13B2CB"/>
<stop offset="0.2782" stop-color="#11AACB" stop-opacity="0.9441"/>
<stop offset="0.4773" stop-color="#0A89CB" stop-opacity="0.6837"/>
<stop offset="0.6686" stop-color="#0472CB" stop-opacity="0.4335"/>
<stop offset="0.8471" stop-color="#0164CB" stop-opacity="0.2"/>
<stop offset="1" stop-color="#005FCB" stop-opacity="0"/>
</radialGradient>
<radialGradient id="paint8_radial_9_111" cx="0" cy="0" r="1" gradientUnits="userSpaceOnUse" gradientTransform="translate(540.138 312.988) scale(53.5821 45.2099)">
<stop offset="0.0013" stop-color="#9BFBFF"/>
<stop offset="0.07" stop-color="#6AE1EC"/>
<stop offset="0.145" stop-color="#3BC7DA"/>
<stop offset="0.2026" stop-color="#1EB8CF"/>
<stop offset="0.2355" stop-color="#13B2CB"/>
<stop offset="0.2782" stop-color="#11AACB" stop-opacity="0.9441"/>
<stop offset="0.4773" stop-color="#0A89CB" stop-opacity="0.6837"/>
<stop offset="0.6686" stop-color="#0472CB" stop-opacity="0.4335"/>
<stop offset="0.8471" stop-color="#0164CB" stop-opacity="0.2"/>
<stop offset="1" stop-color="#005FCB" stop-opacity="0"/>
</radialGradient>
<radialGradient id="paint9_radial_9_111" cx="0" cy="0" r="1" gradientUnits="userSpaceOnUse" gradientTransform="translate(332.764 678.965) scale(28.041 23.6596)">
<stop offset="0.0013" stop-color="#9BFBFF"/>
<stop offset="0.0195" stop-color="#97F7FE" stop-opacity="0.9817"/>
<stop offset="0.3635" stop-color="#57B6E8" stop-opacity="0.6373"/>
<stop offset="0.6531" stop-color="#2887D8" stop-opacity="0.3473"/>
<stop offset="0.874" stop-color="#0B6ACF" stop-opacity="0.1261"/>
<stop offset="1" stop-color="#005FCB" stop-opacity="0"/>
</radialGradient>
<radialGradient id="paint10_radial_9_111" cx="0" cy="0" r="1" gradientUnits="userSpaceOnUse" gradientTransform="translate(1538.06 728.798) scale(28.041 23.6595)">
<stop offset="0.0013" stop-color="#9BFBFF"/>
<stop offset="0.0195" stop-color="#97F7FE" stop-opacity="0.9817"/>
<stop offset="0.3635" stop-color="#57B6E8" stop-opacity="0.6373"/>
<stop offset="0.6531" stop-color="#2887D8" stop-opacity="0.3473"/>
<stop offset="0.874" stop-color="#0B6ACF" stop-opacity="0.1261"/>
<stop offset="1" stop-color="#005FCB" stop-opacity="0"/>
</radialGradient>
<radialGradient id="paint11_radial_9_111" cx="0" cy="0" r="1" gradientUnits="userSpaceOnUse" gradientTransform="translate(1372.81 540) scale(28.041 23.6596)">
<stop offset="0.0013" stop-color="#9BFBFF"/>
<stop offset="0.0195" stop-color="#97F7FE" stop-opacity="0.9817"/>
<stop offset="0.3635" stop-color="#57B6E8" stop-opacity="0.6373"/>
<stop offset="0.6531" stop-color="#2887D8" stop-opacity="0.3473"/>
<stop offset="0.874" stop-color="#0B6ACF" stop-opacity="0.1261"/>
<stop offset="1" stop-color="#005FCB" stop-opacity="0"/>
</radialGradient>
<radialGradient id="paint12_radial_9_111" cx="0" cy="0" r="1" gradientUnits="userSpaceOnUse" gradientTransform="translate(960 842.376) scale(75.9669 64.0971)">
<stop offset="0.0013" stop-color="#9BFBFF"/>
<stop offset="0.07" stop-color="#6AE1EC"/>
<stop offset="0.145" stop-color="#3BC7DA"/>
<stop offset="0.2026" stop-color="#1EB8CF"/>
<stop offset="0.2355" stop-color="#13B2CB"/>
<stop offset="0.2782" stop-color="#11AACB" stop-opacity="0.9441"/>
<stop offset="0.4773" stop-color="#0A89CB" stop-opacity="0.6837"/>
<stop offset="0.6686" stop-color="#0472CB" stop-opacity="0.4335"/>
<stop offset="0.8471" stop-color="#0164CB" stop-opacity="0.2"/>
<stop offset="1" stop-color="#005FCB" stop-opacity="0"/>
</radialGradient>
<radialGradient id="paint13_radial_9_111" cx="0" cy="0" r="1" gradientUnits="userSpaceOnUse" gradientTransform="translate(433.465 -27.6139) scale(466.919 393.963)">
<stop offset="0.0013" stop-color="#9BFBFF"/>
<stop offset="0.0195" stop-color="#97F7FE" stop-opacity="0.9817"/>
<stop offset="0.3635" stop-color="#57B6E8" stop-opacity="0.6373"/>
<stop offset="0.6531" stop-color="#2887D8" stop-opacity="0.3473"/>
<stop offset="0.874" stop-color="#0B6ACF" stop-opacity="0.1261"/>
<stop offset="1" stop-color="#005FCB" stop-opacity="0"/>
</radialGradient>
<radialGradient id="paint14_radial_9_111" cx="0" cy="0" r="1" gradientUnits="userSpaceOnUse" gradientTransform="translate(1389.34 1032.25) scale(466.919 393.963)">
<stop offset="0.0013" stop-color="#9BFBFF"/>
<stop offset="0.0195" stop-color="#97F7FE" stop-opacity="0.9817"/>
<stop offset="0.3635" stop-color="#57B6E8" stop-opacity="0.6373"/>
<stop offset="0.6531" stop-color="#2887D8" stop-opacity="0.3473"/>
<stop offset="0.874" stop-color="#0B6ACF" stop-opacity="0.1261"/>
<stop offset="1" stop-color="#005FCB" stop-opacity="0"/>
</radialGradient>
<radialGradient id="paint15_radial_9_111" cx="0" cy="0" r="1" gradientUnits="userSpaceOnUse" gradientTransform="translate(360.267 901.679) scale(466.919 393.963)">
<stop offset="0.0013" stop-color="#9BFBFF"/>
<stop offset="0.0195" stop-color="#97F7FE" stop-opacity="0.9817"/>
<stop offset="0.3635" stop-color="#57B6E8" stop-opacity="0.6373"/>
<stop offset="0.6531" stop-color="#2887D8" stop-opacity="0.3473"/>
<stop offset="0.874" stop-color="#0B6ACF" stop-opacity="0.1261"/>
<stop offset="1" stop-color="#005FCB" stop-opacity="0"/>
</radialGradient>
<radialGradient id="paint16_radial_9_111" cx="0" cy="0" r="1" gradientUnits="userSpaceOnUse" gradientTransform="translate(1920 -4.22586e-05) scale(466.919 393.963)">
<stop offset="0.0013" stop-color="#9BFBFF"/>
<stop offset="0.0195" stop-color="#97F7FE" stop-opacity="0.9817"/>
<stop offset="0.3635" stop-color="#57B6E8" stop-opacity="0.6373"/>
<stop offset="0.6531" stop-color="#2887D8" stop-opacity="0.3473"/>
<stop offset="0.874" stop-color="#0B6ACF" stop-opacity="0.1261"/>
<stop offset="1" stop-color="#005FCB" stop-opacity="0"/>
</radialGradient>
<linearGradient id="paint17_linear_9_111" x1="303.589" y1="248.288" x2="960.689" y2="248.288" gradientUnits="userSpaceOnUse">
<stop stop-color="white"/>
<stop offset="1" stop-color="white" stop-opacity="0.3"/>
</linearGradient>
<radialGradient id="paint18_radial_9_111" cx="0" cy="0" r="1" gradientUnits="userSpaceOnUse" gradientTransform="translate(1646.41 560.269) scale(287.001 242.157)">
<stop stop-color="white"/>
<stop offset="1" stop-color="white" stop-opacity="0.3"/>
</radialGradient>
</defs>
</svg>
